<svg xmlns="http://www.w3.org/2000/svg" width="751" height="401" viewBox="0 0 751 401"><path stroke="#000" stroke-width="2" d="M1 301h99v99H1z"/><text y="1012.783" x="40.964" style="line-height:125%" font-weight="400" font-size="20" font-family="sans-serif" letter-spacing="0" word-spacing="0" fill="#fff" transform="translate(0 -651.362)"><tspan y="1012.783" x="40.964" font-size="30">0</tspan></text><path fill="#090909" stroke="#000" stroke-width="2" d="M101 301h99v99h-99z"/><text style="line-height:125%" x="141.066" y="1012.797" font-weight="400" font-size="20" font-family="sans-serif" letter-spacing="0" word-spacing="0" fill="#fff" transform="translate(0 -651.362)"><tspan x="141.066" y="1012.797" font-size="30">9</tspan></text><path stroke="#000" stroke-width="2" d="M201 301h99v99h-99z"/><text y="1012.783" x="240.964" style="line-height:125%" font-weight="400" font-size="20" font-family="sans-serif" letter-spacing="0" word-spacing="0" fill="#fff" transform="translate(0 -651.362)"><tspan y="1012.783" x="240.964" font-size="30">0</tspan></text><path stroke="#000" stroke-width="2" d="M201 201h99v99h-99z"/><text style="line-height:125%" x="240.964" y="912.797" font-weight="400" font-size="20" font-family="sans-serif" letter-spacing="0" word-spacing="0" fill="#fff" transform="translate(0 -651.362)"><tspan x="240.964" y="912.797" font-size="30">0</tspan></text><path fill="#1f1f1f" stroke="#000" stroke-width="2" d="M201 101h99v99h-99z"/><text y="812.782" x="231.647" style="line-height:125%" font-weight="400" font-size="20" font-family="sans-serif" letter-spacing="0" word-spacing="0" fill="#fff" transform="translate(0 -651.362)"><tspan y="812.782" x="231.647" font-size="30">31</tspan></text><path fill="#505050" stroke="#000" stroke-width="2" d="M101 101h99v99h-99z"/><text style="line-height:125%" x="131.384" y="812.797" font-weight="400" font-size="20" font-family="sans-serif" letter-spacing="0" word-spacing="0" fill="#fff" transform="translate(0 -651.362)"><tspan x="131.384" y="812.797" font-size="30">80</tspan></text><path fill="#5a5a5a" stroke="#000" d="M101 201h99v99h-99z"/><text y="912.782" x="131.457" style="line-height:125%" font-weight="400" font-size="20" font-family="sans-serif" letter-spacing="0" word-spacing="0" fill="#fff" transform="translate(0 -651.362)"><tspan y="912.782" x="131.457" font-size="30">90</tspan></text><path fill="#212121" stroke="#000" stroke-width="2" d="M1 201h99v99H1z"/><text style="line-height:125%" x="31.464" y="912.797" font-weight="400" font-size="20" font-family="sans-serif" letter-spacing="0" word-spacing="0" fill="#fff" transform="translate(0 -651.362)"><tspan x="31.464" y="912.797" font-size="30">33</tspan></text><path stroke="#000" stroke-width="2" d="M1 101h99v99H1z"/><text y="812.782" x="40.964" style="line-height:125%" font-weight="400" font-size="20" font-family="sans-serif" letter-spacing="0" word-spacing="0" fill="#fff" transform="translate(0 -651.362)"><tspan y="812.782" x="40.964" font-size="30">0</tspan></text><path fill="#5f5f5f" stroke="#000" stroke-width="2" d="M301 301h99v99h-99z"/><text style="line-height:125%" x="331.772" y="1012.783" font-weight="400" font-size="20" font-family="sans-serif" letter-spacing="0" word-spacing="0" fill="#fff" transform="translate(0 -651.362)"><tspan x="331.772" y="1012.783" font-size="30">95</tspan></text><path fill="#4b4b4b" stroke="#000" stroke-width="2" d="M301 201h99v99h-99z"/><text y="912.797" x="331.486" style="line-height:125%" font-weight="400" font-size="20" font-family="sans-serif" letter-spacing="0" word-spacing="0" fill="#fff" transform="translate(0 -651.362)"><tspan y="912.797" x="331.486" font-size="30">75</tspan></text><path fill="#020202" stroke="#000" stroke-width="2" d="M301 101h99v99h-99z"/><text style="line-height:125%" x="340.964" y="812.782" font-weight="400" font-size="20" font-family="sans-serif" letter-spacing="0" word-spacing="0" fill="#fff" transform="translate(0 -651.362)"><tspan x="340.964" y="812.782" font-size="30">2</tspan></text><path stroke="#000" stroke-width="2" d="M1 1h99v99H1z"/><text style="line-height:125%" x="40.964" y="712.782" font-weight="400" font-size="20" font-family="sans-serif" letter-spacing="0" word-spacing="0" fill="#fff" transform="translate(0 -651.362)"><tspan x="40.964" y="712.782" font-size="30">0</tspan></text><path fill="#323232" stroke="#000" stroke-width="2" d="M101 1h99v99h-99z"/><text y="712.782" x="131.245" style="line-height:125%" font-weight="400" font-size="20" font-family="sans-serif" letter-spacing="0" word-spacing="0" fill="#fff" transform="translate(0 -651.362)"><tspan y="712.782" x="131.245" font-size="30">50</tspan></text><path stroke="#000" stroke-width="2" d="M201 1h99v99h-99z"/><text style="line-height:125%" x="240.964" y="712.782" font-weight="400" font-size="20" font-family="sans-serif" letter-spacing="0" word-spacing="0" fill="#fff" transform="translate(0 -651.362)"><tspan x="240.964" y="712.782" font-size="30">0</tspan></text><path fill="#1d1d1d" stroke="#000" stroke-width="2" d="M301 1h99v99h-99z"/><text y="712.797" x="331.362" style="line-height:125%" font-weight="400" font-size="20" font-family="sans-serif" letter-spacing="0" word-spacing="0" fill="#fff" transform="translate(0 -651.362)"><tspan y="712.797" x="331.362" font-size="30">29</tspan></text><path fill="none" stroke="#000" stroke-width="2" d="M451 251h99v99h-99z"/><text y="1012.783" x="36.188" style="line-height:125%" font-weight="400" font-size="20" font-family="sans-serif" letter-spacing="0" word-spacing="0" transform="translate(450 -701.362)"><tspan y="1012.783" x="36.188" font-size="30">-1</tspan></text><path fill="none" stroke="#000" stroke-width="2" d="M551 251h99v99h-99z"/><text style="line-height:125%" x="140.964" y="1012.797" font-weight="400" font-size="20" font-family="sans-serif" letter-spacing="0" word-spacing="0" transform="translate(450 -701.362)"><tspan x="140.964" y="1012.797" font-size="30">0</tspan></text><path fill="none" stroke="#000" stroke-width="2" d="M651 251h99v99h-99z"/><text y="1012.783" x="240.693" style="line-height:125%" font-weight="400" font-size="20" font-family="sans-serif" letter-spacing="0" word-spacing="0" transform="translate(450 -701.362)"><tspan y="1012.783" x="240.693" font-size="30">1</tspan></text><path fill="none" stroke="#000" stroke-width="2" d="M651 151h99v99h-99z"/><text style="line-height:125%" x="241.359" y="912.797" font-weight="400" font-size="20" font-family="sans-serif" letter-spacing="0" word-spacing="0" transform="translate(450 -701.362)"><tspan x="241.359" y="912.797" font-size="30">2</tspan></text><path fill="none" stroke="#000" stroke-width="2" d="M651 51h99v99h-99z"/><text y="812.782" x="240.693" style="line-height:125%" font-weight="400" font-size="20" font-family="sans-serif" letter-spacing="0" word-spacing="0" transform="translate(450 -701.362)"><tspan y="812.782" x="240.693" font-size="30">1</tspan></text><path fill="none" stroke="#000" stroke-width="2" d="M551 51h99v99h-99z"/><text style="line-height:125%" x="140.964" y="812.797" font-weight="400" font-size="20" font-family="sans-serif" letter-spacing="0" word-spacing="0" transform="translate(450 -701.362)"><tspan x="140.964" y="812.797" font-size="30">0</tspan></text><path fill="none" stroke="#000" d="M551 151h99v99h-99z"/><text y="912.797" x="140.964" style="line-height:125%" font-weight="400" font-size="20" font-family="sans-serif" letter-spacing="0" word-spacing="0" transform="translate(450 -701.362)"><tspan y="912.797" x="140.964" font-size="30">0</tspan></text><path fill="none" stroke="#000" stroke-width="2" d="M451 151h99v99h-99z"/><text style="line-height:125%" x="36.306" y="912.797" font-weight="400" font-size="20" font-family="sans-serif" letter-spacing="0" word-spacing="0" transform="translate(450 -701.362)"><tspan x="36.306" y="912.797" font-size="30">-2</tspan></text><path fill="none" stroke="#000" stroke-width="2" d="M451 51h99v99h-99z"/><text y="812.782" x="36.188" style="line-height:125%" font-weight="400" font-size="20" font-family="sans-serif" letter-spacing="0" word-spacing="0" transform="translate(450 -701.362)"><tspan y="812.782" x="36.188" font-size="30">-1</tspan></text></svg>