<?xml version="1.0" encoding="UTF-8" standalone="no"?>
<!-- Created with Inkscape (http://www.inkscape.org/) -->

<svg
   width="297mm"
   height="210mm"
   viewBox="0 0 298.56297 211.10513"
   version="1.1"
   id="svg259"
   inkscape:version="1.2 (dc2aedaf03, 2022-05-15)"
   sodipodi:docname="FOV_eng.svg"
   xmlns:inkscape="http://www.inkscape.org/namespaces/inkscape"
   xmlns:sodipodi="http://sodipodi.sourceforge.net/DTD/sodipodi-0.dtd"
   xmlns="http://www.w3.org/2000/svg"
   xmlns:svg="http://www.w3.org/2000/svg">
  <sodipodi:namedview
     id="namedview261"
     pagecolor="#ffffff"
     bordercolor="#000000"
     borderopacity="0.25"
     inkscape:showpageshadow="2"
     inkscape:pageopacity="0.0"
     inkscape:pagecheckerboard="0"
     inkscape:deskcolor="#d1d1d1"
     inkscape:document-units="mm"
     showgrid="true"
     inkscape:zoom="1.4142136"
     inkscape:cx="718.06694"
     inkscape:cy="258.80108"
     inkscape:window-width="3840"
     inkscape:window-height="2126"
     inkscape:window-x="-11"
     inkscape:window-y="-11"
     inkscape:window-maximized="1"
     inkscape:current-layer="layer1" />
  <defs
     id="defs256">
    <rect
       x="43.133514"
       y="148.49242"
       width="158.39192"
       height="63.63961"
       id="rect51425" />
    <rect
       x="62.225397"
       y="142.83557"
       width="178.19091"
       height="68.589358"
       id="rect50063" />
  </defs>
  <g
     inkscape:label="Στρώση 1"
     inkscape:groupmode="layer"
     id="layer1">
    <path
       style="fill:#fbfed7;fill-opacity:0.970675;stroke:#000000;stroke-width:1.04493;stroke-dasharray:none"
       d="m 132.04834,162.16472 0.54868,-83.932138 71.42714,-41.238473 0.43941,83.094701 z"
       id="path3336-3"
       sodipodi:nodetypes="ccccc" />
    <path
       style="fill:#fbfed7;fill-opacity:0.970675;stroke:#000000;stroke-width:0.962333;stroke-dasharray:none"
       d="M 6.4381856,192.84323 6.4376105,89.906557 94.891912,38.12222 95.77074,141.10027 Z"
       id="path3336"
       sodipodi:nodetypes="ccccc" />
    <path
       style="fill:#f8fdb5;fill-opacity:0.970675;stroke:#000000;stroke-width:0.962333;stroke-dasharray:none"
       d="m 240.55127,140.68879 -0.22029,-61.741876 52.97187,-30.582757 0.21971,62.222673 z"
       id="path3336-6"
       sodipodi:nodetypes="ccccc" />
    <path
       style="fill:none;fill-opacity:0.970675;stroke:#000000;stroke-width:0.552205;stroke-dasharray:none;stroke-opacity:1"
       d="M 24.018077,80.125043 23.908223,182.83738"
       id="path8722"
       sodipodi:nodetypes="cc" />
    <path
       style="fill:none;fill-opacity:0.970675;stroke:#000000;stroke-width:0.552205;stroke-dasharray:none;stroke-opacity:1"
       d="M 41.649445,69.743956 41.539592,172.89571"
       id="path8722-7"
       sodipodi:nodetypes="cc" />
    <path
       style="fill:none;fill-opacity:0.970675;stroke:#000000;stroke-width:0.552205;stroke-dasharray:none;stroke-opacity:1"
       d="m 258.27909,68.425732 -0.10984,62.835798"
       id="path8722-7-2"
       sodipodi:nodetypes="cc" />
    <path
       style="fill:none;fill-opacity:0.970675;stroke:#000000;stroke-width:0.552205;stroke-dasharray:none;stroke-opacity:1"
       d="m 275.52597,59.088246 -0.10984,61.956984"
       id="path8722-7-5"
       sodipodi:nodetypes="cc" />
    <path
       style="fill:none;fill-opacity:0.970675;stroke:#000000;stroke-width:0.552205;stroke-dasharray:none;stroke-opacity:1"
       d="M 59.775151,58.758678 59.665299,162.34983"
       id="path8722-1"
       sodipodi:nodetypes="cc" />
    <path
       style="fill:none;fill-opacity:0.970675;stroke:#000000;stroke-width:0.552205;stroke-dasharray:none;stroke-opacity:1"
       d="M 78.230419,48.102958 78.120564,151.2547"
       id="path8722-1-9"
       sodipodi:nodetypes="cc" />
    <path
       style="fill:none;fill-opacity:0.970675;stroke:#000000;stroke-width:0.552205;stroke-dasharray:none;stroke-opacity:1"
       d="m 150.18398,68.315879 -0.10986,82.279731"
       id="path8722-0" />
    <path
       style="fill:none;fill-opacity:0.970675;stroke:#000000;stroke-width:0.552205;stroke-dasharray:none;stroke-opacity:1"
       d="m 167.76042,57.989719 -0.10986,82.279721"
       id="path8722-2" />
    <path
       style="fill:none;fill-opacity:0.970675;stroke:#000000;stroke-width:0.552205;stroke-dasharray:none;stroke-opacity:1"
       d="m 185.88612,48.212823 -0.10985,82.279717"
       id="path8722-9" />
    <path
       style="fill:none;fill-opacity:0.970675;stroke:#000000;stroke-width:0.552205;stroke-dasharray:none;stroke-opacity:1"
       d="M 94.936443,80.254997 6.4881525,130.96677"
       id="path8722-5"
       sodipodi:nodetypes="cc" />
    <path
       style="fill:none;fill-opacity:0.970675;stroke:#000000;stroke-width:0.552205;stroke-dasharray:none;stroke-opacity:1"
       d="M 94.991371,59.108677 6.5430766,111.02883"
       id="path8722-5-2"
       sodipodi:nodetypes="cc" />
    <path
       style="fill:none;fill-opacity:0.970675;stroke:#000000;stroke-width:0.552205;stroke-dasharray:none;stroke-opacity:1"
       d="M 95.375862,100.90731 6.5980041,152.16835"
       id="path8722-5-1"
       sodipodi:nodetypes="cc" />
    <path
       style="fill:none;fill-opacity:0.970675;stroke:#000000;stroke-width:0.552205;stroke-dasharray:none;stroke-opacity:1"
       d="M 95.485718,121.33993 6.8177092,172.60096"
       id="path8722-5-9"
       sodipodi:nodetypes="cc" />
    <path
       style="fill:none;fill-opacity:0.970675;stroke:#000000;stroke-width:0.552205;stroke-dasharray:none;stroke-opacity:1"
       d="M 203.91038,58.174596 132.59912,99.219333"
       id="path8722-5-7" />
    <path
       style="fill:none;fill-opacity:0.970675;stroke:#000000;stroke-width:0.552205;stroke-dasharray:none;stroke-opacity:1"
       d="M 203.80053,79.046627 132.48926,120.09136"
       id="path8722-5-0" />
    <path
       style="fill:none;fill-opacity:0.970675;stroke:#000000;stroke-width:0.552205;stroke-dasharray:none;stroke-opacity:1"
       d="M 203.91038,99.698944 132.59912,140.74368"
       id="path8722-5-71" />
    <path
       style="fill:none;fill-opacity:0.970675;stroke:#000000;stroke-width:0.552205;stroke-dasharray:none;stroke-opacity:1"
       d="M 293.4404,69.050022 240.36469,99.988304"
       id="path8722-5-4"
       sodipodi:nodetypes="cc" />
    <path
       style="fill:none;fill-opacity:0.970675;stroke:#000000;stroke-width:0.552205;stroke-dasharray:none;stroke-opacity:1"
       d="m 293.66009,89.922047 -53.2954,30.498873"
       id="path8722-5-5"
       sodipodi:nodetypes="cc" />
    <path
       style="fill:none;fill-opacity:0.970675;stroke:#d88a59;stroke-width:0.386128;stroke-dasharray:0.772256, 0.386128;stroke-dashoffset:0;stroke-opacity:1"
       d="M 258.22408,89.682222 150.23885,89.242811"
       id="path18647" />
    <path
       style="fill:none;fill-opacity:0.970675;stroke:#d88a59;stroke-width:0.386128;stroke-dasharray:0.772256, 0.386128;stroke-dashoffset:0;stroke-opacity:1"
       d="M 275.25126,79.136361 185.83114,68.590498"
       id="path26533" />
    <path
       style="fill:none;fill-opacity:0.970675;stroke:#d88a59;stroke-width:0.386128;stroke-dasharray:0.772256, 0.386128;stroke-dashoffset:0;stroke-opacity:1"
       d="M 258.44379,110.00498 150.23885,130.54743"
       id="path26535" />
    <path
       style="fill:#ffff00;fill-opacity:0.970675;stroke:#d88a59;stroke-width:0.386128;stroke-dasharray:0.772256, 0.386128;stroke-dashoffset:0;stroke-opacity:1"
       d="m 275.91037,100.11823 -90.07923,10.21631"
       id="path26537" />
    <path
       style="fill:#ffff00;fill-opacity:0.970675;stroke:#d88a59;stroke-width:0.193064;stroke-dasharray:0.386128, 0.193064;stroke-dashoffset:0;stroke-opacity:1"
       d="m 258.49871,105.94043 c 0,-2.34353 0.0388,-3.62514 0.10985,-3.62514 0.12916,0 0.14986,-0.40415 0.0234,-0.45772 -0.0475,-0.0202 -0.0664,-2.755475 -0.042,-6.078521 l 0.0444,-6.0419 8.24339,-4.807041 c 4.53387,-2.643872 8.26569,-4.78475 8.29294,-4.757507 0.0272,0.02724 0.0128,4.550872 -0.0323,10.052507 -0.0655,8.016235 -0.10969,10.002972 -0.22247,10.002972 -0.0775,0 -0.15966,-0.0568 -0.18279,-0.1262 -0.0455,-0.136219 -0.85646,-0.0376 -0.85339,0.10372 0.003,0.12936 0.15526,0.31651 0.29575,0.36304 0.11523,0.0382 -15.42675,8.99693 -15.60823,8.99693 -0.0378,0 -0.0686,-1.63131 -0.0686,-3.62514 z m 1.31823,-3.99708 c 0,-0.21148 -0.049,-0.23338 -0.4394,-0.19615 -0.32699,0.0312 -0.43941,0.0905 -0.43941,0.23176 0,0.27053 0.0555,0.29855 0.49096,0.24772 0.31065,-0.0363 0.38785,-0.0927 0.38785,-0.28333 z m 1.20839,-0.13521 c 0,-0.24448 -0.037,-0.27755 -0.24718,-0.22121 -0.13592,0.0364 -0.33367,0.0669 -0.43941,0.0677 -0.1185,8.8e-4 -0.19223,0.0858 -0.19223,0.22121 0,0.18309 0.0732,0.2197 0.43941,0.2197 0.40069,0 0.43941,-0.0253 0.43941,-0.28744 z m 1.09852,-0.097 c 0,-0.18889 -0.06,-0.27417 -0.19224,-0.27313 -0.41239,0.003 -0.68658,0.13935 -0.68658,0.34087 0,0.16814 0.0822,0.20689 0.43941,0.20689 0.39547,0 0.43941,-0.0275 0.43941,-0.27463 z m 1.03462,0.0981 c 0.0955,-0.0367 0.17376,-0.16325 0.17376,-0.28126 0,-0.1808 -0.0649,-0.20922 -0.41195,-0.18049 -0.3309,0.0274 -0.41884,0.0827 -0.44705,0.28126 -0.0283,0.19949 0.0176,0.24717 0.23818,0.24717 0.15032,0 0.35148,-0.03 0.44706,-0.0667 z m 1.02512,-0.11241 c 0.14538,-0.039 0.24717,-0.15144 0.24717,-0.27313 0,-0.16815 -0.0822,-0.2069 -0.43941,-0.2069 -0.39547,0 -0.43941,0.0275 -0.43941,0.27463 0,0.2876 0.1468,0.33533 0.63165,0.2054 z m 1.18991,-0.15047 c 0.19241,0 0.26564,-0.0606 0.26564,-0.21971 0,-0.18308 -0.0732,-0.2197 -0.43941,-0.2197 -0.40029,0 -0.43941,0.0255 -0.43941,0.28638 0,0.21602 0.0427,0.27 0.17376,0.21971 0.0955,-0.0367 0.29331,-0.0667 0.43942,-0.0667 z m 1.36416,-0.3973 c 0,-0.24448 -0.037,-0.27754 -0.24716,-0.2212 -0.13593,0.0364 -0.33366,0.0669 -0.43941,0.0678 -0.11851,8.8e-4 -0.19224,0.0858 -0.19224,0.2212 0,0.18309 0.0732,0.21971 0.43941,0.21971 0.4007,0 0.4394,-0.0253 0.4394,-0.28745 z m 1.20839,-0.0356 c 0,-0.28598 -0.15906,-0.36682 -0.55194,-0.28052 -0.22422,0.0493 -0.32688,0.13805 -0.32688,0.28277 0,0.1729 0.0793,0.21097 0.43941,0.21097 0.36172,0 0.43941,-0.0377 0.43941,-0.21322 z m 1.0787,-0.19872 c 0.0283,-0.1995 -0.0176,-0.24717 -0.23817,-0.24717 -0.42019,0 -0.62083,0.11245 -0.62083,0.34794 0,0.18079 0.065,0.20922 0.41195,0.18049 0.3309,-0.0274 0.41884,-0.0827 0.44705,-0.28126 z m 1.21432,0.0224 c 0.0225,-0.0222 0.0116,-0.11668 -0.024,-0.20991 -0.0407,-0.10632 -0.20288,-0.16952 -0.43469,-0.16952 -0.44346,0 -0.51033,0.0532 -0.43395,0.34528 0.0498,0.19071 0.11525,0.21207 0.45494,0.14862 0.21815,-0.0407 0.41512,-0.0923 0.43771,-0.11447 z m 0.92017,-0.0484 c 0.11851,-8.8e-4 0.19224,-0.0858 0.19224,-0.22121 0,-0.18309 -0.0732,-0.21971 -0.43941,-0.21971 -0.40069,0 -0.43941,0.0253 -0.43941,0.28745 0,0.24448 0.0369,0.27754 0.24717,0.22121 0.13596,-0.0364 0.33369,-0.0669 0.43941,-0.0678 z m 1.39893,-0.26021 c -0.003,-0.27071 -0.17689,-0.3647 -0.58187,-0.31565 -0.3111,0.0377 -0.4029,0.0921 -0.35702,0.21167 0.034,0.0885 0.0617,0.19529 0.0617,0.23726 0,0.042 0.19774,0.0574 0.43941,0.0344 0.24168,-0.023 0.43867,-0.0985 0.43773,-0.16769 z m 1.10023,-0.23563 c 0,-0.29837 -0.0252,-0.30805 -0.53554,-0.20598 -0.23801,0.0476 -0.34329,0.13183 -0.34329,0.27464 0,0.16706 0.083,0.20597 0.43941,0.20597 0.39547,0 0.43942,-0.0275 0.43942,-0.27463 z"
       id="path26740" />
    <path
       style="fill:#f0f080;fill-opacity:0.970675;stroke:#d88a59;stroke-width:0.193064;stroke-dasharray:0.386128, 0.193064;stroke-dashoffset:0;stroke-opacity:1"
       d="m 150.51347,99.29532 c 0,-8.81333 0.02,-10.036669 0.16479,-10.092233 0.10041,-0.03852 0.16478,-1.75e-4 0.16478,0.0981 0,0.114986 0.12623,0.161333 0.43941,0.161333 0.36139,0 0.43941,-0.03778 0.43941,-0.212747 0,-0.15271 -0.0885,-0.222457 -0.31364,-0.247168 -0.28862,-0.03168 3.56333,-2.301191 15.49082,-9.126957 l 0.53176,-0.304319 v 4.725891 c 0,3.966234 -0.0246,4.725888 -0.15302,4.725888 -0.17173,0 -0.32014,0.295935 -0.22534,0.449324 0.034,0.05497 0.133,0.09994 0.22007,0.09994 0.13539,0 0.15657,0.639489 0.14638,4.421571 -0.006,2.431865 -0.0437,4.706155 -0.0823,5.053975 l -0.0705,0.632402 -8.37627,4.822 -8.37627,4.822 z m 8.12912,-9.997583 c 0,-0.247167 -0.044,-0.274631 -0.43942,-0.274631 -0.39547,0 -0.43941,0.02747 -0.43941,0.274631 0,0.247169 0.044,0.274633 0.43941,0.274633 0.39547,0 0.43942,-0.02746 0.43942,-0.274633 z m 1.20837,0 c 0,-0.247167 -0.044,-0.274631 -0.43941,-0.274631 -0.39547,0 -0.43941,0.02747 -0.43941,0.274631 0,0.247169 0.044,0.274633 0.43941,0.274633 0.39547,0 0.43941,-0.02746 0.43941,-0.274633 z m 1.09853,0 c 0,-0.247167 -0.044,-0.274631 -0.43941,-0.274631 -0.39547,0 -0.43941,0.02747 -0.43941,0.274631 0,0.247169 0.044,0.274633 0.43941,0.274633 0.39546,0 0.43941,-0.02746 0.43941,-0.274633 z m 1.20837,0 c 0,-0.247167 -0.044,-0.274631 -0.43941,-0.274631 -0.39547,0 -0.43941,0.02747 -0.43941,0.274631 0,0.247169 0.044,0.274633 0.43941,0.274633 0.39547,0 0.43941,-0.02746 0.43941,-0.274633 z m 1.09854,0 c 0,-0.247167 -0.044,-0.274631 -0.43942,-0.274631 -0.39547,0 -0.43941,0.02747 -0.43941,0.274631 0,0.247169 0.044,0.274633 0.43941,0.274633 0.39547,0 0.43942,-0.02746 0.43942,-0.274633 z m 1.20838,0 c 0,-0.247167 -0.044,-0.274631 -0.43941,-0.274631 -0.39547,0 -0.43941,0.02747 -0.43941,0.274631 0,0.247169 0.044,0.274633 0.43941,0.274633 0.39546,0 0.43941,-0.02746 0.43941,-0.274633 z m 1.09853,-0.0067 c 0,-0.257842 -0.0343,-0.278424 -0.41196,-0.247169 -0.33088,0.02738 -0.41884,0.08272 -0.44705,0.281263 -0.0315,0.221581 0.0112,0.247169 0.41196,0.247169 0.40642,0 0.44705,-0.02555 0.44705,-0.281263 z m 1.20838,0.0067 c 0,-0.247167 -0.044,-0.274631 -0.43942,-0.274631 -0.39547,0 -0.43941,0.02747 -0.43941,0.274631 0,0.247169 0.044,0.274633 0.43941,0.274633 0.39547,0 0.43942,-0.02746 0.43942,-0.274633 z m -13.95131,-0.05492 c 0,-0.183087 -0.0732,-0.219706 -0.4394,-0.219706 -0.36618,0 -0.43941,0.03662 -0.43941,0.219706 0,0.183088 0.0732,0.219706 0.43941,0.219706 0.36618,0 0.4394,-0.03662 0.4394,-0.219706 z m 1.20838,0 c 0,-0.183087 -0.0732,-0.219706 -0.4394,-0.219706 -0.36617,0 -0.43941,0.03662 -0.43941,0.219706 0,0.183088 0.0732,0.219706 0.43941,0.219706 0.36617,0 0.4394,-0.03662 0.4394,-0.219706 z m 1.09854,0 c 0,-0.177855 -0.0732,-0.219706 -0.38449,-0.219706 -0.31125,0 -0.38449,0.04186 -0.38449,0.219706 0,0.177857 0.0732,0.219706 0.38449,0.219706 0.31125,0 0.38449,-0.04186 0.38449,-0.219706 z m 1.20837,0 c 0,-0.183087 -0.0732,-0.219706 -0.43941,-0.219706 -0.36617,0 -0.43941,0.03662 -0.43941,0.219706 0,0.183088 0.0732,0.219706 0.43941,0.219706 0.36619,0 0.43941,-0.03662 0.43941,-0.219706 z m 1.20838,0 c 0,-0.183087 -0.0732,-0.219706 -0.4394,-0.219706 -0.36618,0 -0.43941,0.03662 -0.43941,0.219706 0,0.183088 0.0732,0.219706 0.43941,0.219706 0.36617,0 0.4394,-0.03662 0.4394,-0.219706 z"
       id="path29855" />
    <path
       style="fill:#f0f080;fill-opacity:0.970675;stroke:#d88a59;stroke-width:0.193064;stroke-dasharray:0.386128, 0.193064;stroke-dashoffset:0;stroke-opacity:1"
       d="m 168.08991,89.159838 v -9.969723 l 8.70584,-5.011789 8.70583,-5.011788 0.032,9.571264 c 0.0176,5.264192 0.004,9.769256 -0.0303,10.01125 l -0.062,0.439986 -0.49163,-0.0391 c -0.43273,-0.03442 -0.49163,-0.01255 -0.49163,0.182512 0,0.121884 0.0572,0.240669 0.12705,0.263962 0.11128,0.03709 -16.25206,9.533145 -16.42725,9.533145 -0.0373,0 -0.0678,-4.486375 -0.0678,-9.969719 z m 0.98868,0.137899 c 0,-0.247167 -0.044,-0.274631 -0.43942,-0.274631 -0.39547,0 -0.43941,0.02747 -0.43941,0.274631 0,0.247169 0.044,0.274633 0.43941,0.274633 0.39548,0 0.43942,-0.02746 0.43942,-0.274633 z m 1.20839,0.05492 c 0,-0.120837 -0.0433,-0.219706 -0.0961,-0.219706 -0.0529,0 -0.2506,-0.03089 -0.4394,-0.06865 -0.31474,-0.06294 -0.3433,-0.04467 -0.3433,0.219705 0,0.263191 0.0384,0.288364 0.43941,0.288364 0.36618,0 0.43942,-0.03662 0.43942,-0.219706 z m 1.09852,0 c 0,-0.183087 -0.0732,-0.219706 -0.43941,-0.219706 -0.36617,0 -0.43941,0.03662 -0.43941,0.219706 0,0.18309 0.0732,0.219706 0.43941,0.219706 0.36617,0 0.43941,-0.03662 0.43941,-0.219706 z m 1.20838,0 c 0,-0.183087 -0.0732,-0.219706 -0.43942,-0.219706 -0.36617,0 -0.43941,0.03662 -0.43941,0.219706 0,0.18309 0.0732,0.219706 0.43941,0.219706 0.36619,0 0.43942,-0.03662 0.43942,-0.219706 z m 1.09853,0 c 0,-0.183087 -0.0732,-0.219706 -0.43942,-0.219706 -0.36617,0 -0.43941,0.03662 -0.43941,0.219706 0,0.18309 0.0732,0.219706 0.43941,0.219706 0.36618,0 0.43942,-0.03662 0.43942,-0.219706 z m 1.20838,0 c 0,-0.183087 -0.0732,-0.219706 -0.43941,-0.219706 -0.36618,0 -0.43941,0.03662 -0.43941,0.219706 0,0.18309 0.0732,0.219706 0.43941,0.219706 0.36617,0 0.43941,-0.03662 0.43941,-0.219706 z m 1.09853,0 c 0,-0.183087 -0.0732,-0.219706 -0.43941,-0.219706 -0.36619,0 -0.43942,0.03662 -0.43942,0.219706 0,0.18309 0.0732,0.219706 0.43942,0.219706 0.36617,0 0.43941,-0.03662 0.43941,-0.219706 z m 1.20838,0 c 0,-0.183087 -0.0732,-0.219706 -0.43942,-0.219706 -0.36617,0 -0.43941,0.03662 -0.43941,0.219706 0,0.18309 0.0732,0.219706 0.43941,0.219706 0.36618,0 0.43942,-0.03662 0.43942,-0.219706 z m 1.09852,0 c 0,-0.183087 -0.0732,-0.219706 -0.4394,-0.219706 -0.36618,0 -0.43942,0.03662 -0.43942,0.219706 0,0.18309 0.0732,0.219706 0.43942,0.219706 0.36616,0 0.4394,-0.03662 0.4394,-0.219706 z m 1.20838,0 c 0,-0.183087 -0.0732,-0.219706 -0.43941,-0.219706 -0.36618,0 -0.43942,0.03662 -0.43942,0.219706 0,0.18309 0.0732,0.219706 0.43942,0.219706 0.36618,0 0.43941,-0.03662 0.43941,-0.219706 z m 1.09853,-0.0067 c 0,-0.194294 -0.0582,-0.22151 -0.41103,-0.192243 -0.28727,0.02384 -0.42201,0.09198 -0.44746,0.226339 -0.0298,0.157586 0.0442,0.192242 0.41102,0.192242 0.37861,3e-6 0.44747,-0.03483 0.44747,-0.226334 z m 1.20838,0.0067 c 0,-0.183087 -0.0732,-0.219706 -0.4394,-0.219706 -0.36619,0 -0.43942,0.03662 -0.43942,0.219706 0,0.18309 0.0732,0.219706 0.43942,0.219706 0.36616,0 0.4394,-0.03662 0.4394,-0.219706 z m 1.20838,0 c 0,-0.183087 -0.0732,-0.219706 -0.43942,-0.219706 -0.36617,0 -0.43941,0.03662 -0.43941,0.219706 0,0.18309 0.0732,0.219706 0.43941,0.219706 0.36618,0 0.43942,-0.03662 0.43942,-0.219706 z m 1.09853,0 c 0,-0.183087 -0.0732,-0.219706 -0.43941,-0.219706 -0.36618,0 -0.43942,0.03662 -0.43942,0.219706 0,0.18309 0.0732,0.219706 0.43942,0.219706 0.36617,0 0.43941,-0.03662 0.43941,-0.219706 z"
       id="path32617" />
    <path
       style="fill:#f0f080;fill-opacity:0.970675;stroke:#d88a59;stroke-width:0.193064;stroke-dasharray:0.386128, 0.193064;stroke-dashoffset:0;stroke-opacity:1"
       d="m 167.98007,110.02442 v -9.96293 l 8.20296,-4.722762 c 4.51162,-2.597516 8.4416,-4.8597 8.73329,-5.027073 l 0.53033,-0.304319 -0.002,9.971358 -0.002,9.971356 -6.06694,3.48407 c -3.33682,1.91624 -7.26571,4.17463 -8.73087,5.01866 l -2.66393,1.53458 z"
       id="path32619" />
    <path
       style="fill:#f0f080;fill-opacity:0.970675;stroke:#d88a59;stroke-width:0.193064;stroke-dasharray:0.386128, 0.193064;stroke-dashoffset:0;stroke-opacity:1"
       d="m 150.40528,120.14512 0.002,-9.97536 7.92507,-4.55889 c 4.3588,-2.50739 8.16445,-4.69583 8.45702,-4.86321 l 0.53193,-0.30432 -0.004,9.97136 -0.003,9.97136 -7.98804,4.58867 c -4.39342,2.52376 -8.19813,4.714 -8.4549,4.8672 l -0.46688,0.27856 z"
       id="path32621" />
    <path
       style="fill:#f0f080;fill-opacity:0.970675;stroke:#90d859;stroke-width:0.386128;stroke-dasharray:0.772256, 0.386128;stroke-dashoffset:0;stroke-opacity:1"
       d="M 150.23885,109.89513 23.688505,142.08198"
       id="path33273" />
    <path
       style="fill:#f0f080;fill-opacity:0.970675;stroke:#90d859;stroke-width:0.386128;stroke-dasharray:0.772256, 0.386128;stroke-dashoffset:0;stroke-opacity:1"
       d="M 167.59558,99.678821 59.830054,121.31982"
       id="path33275" />
    <path
       style="fill:#f0f080;fill-opacity:0.970675;stroke:#90d859;stroke-width:0.386128;stroke-dasharray:0.772256, 0.386128;stroke-dashoffset:0;stroke-opacity:1"
       d="M 168.36455,79.795477 60.159612,80.015183"
       id="path33277" />
    <path
       style="fill:#cdf18c;fill-opacity:0.970675;stroke:#b8c90a;stroke-width:0.136516;stroke-dasharray:0.819102, 0.273035;stroke-dashoffset:0;stroke-opacity:1"
       d="m 150.52676,109.05318 c 0,-0.0427 0.0349,-0.0777 0.0777,-0.0777 0.0426,0 0.0777,-0.10486 0.0777,-0.23303 0,-0.12946 -0.0414,-0.23303 -0.0932,-0.23303 -0.0725,0 -0.0725,-0.0207 0,-0.0932 0.12212,-0.12213 0.11969,-0.42523 -0.004,-0.4829 -0.0777,-0.0362 -0.0777,-0.0544 0,-0.0906 0.11945,-0.0558 0.12755,-0.35923 0.0127,-0.47413 -0.0608,-0.0608 -0.0608,-0.099 0,-0.13664 0.11586,-0.0716 0.10665,-0.40808 -0.0127,-0.46377 -0.0777,-0.0363 -0.0777,-0.0544 0,-0.0906 0.11933,-0.0557 0.1285,-0.39217 0.0127,-0.46378 -0.0608,-0.0376 -0.0608,-0.0758 0,-0.13663 0.11489,-0.1149 0.10676,-0.41839 -0.0127,-0.47413 -0.0777,-0.0362 -0.0777,-0.0544 0,-0.0906 0.11945,-0.0558 0.12755,-0.35923 0.0127,-0.47413 -0.0608,-0.0608 -0.0608,-0.099 0,-0.13663 0.11586,-0.0716 0.10665,-0.40809 -0.0127,-0.46378 -0.0777,-0.0363 -0.0777,-0.0544 0,-0.0906 0.12356,-0.0577 0.12601,-0.36077 0.004,-0.48289 -0.0674,-0.0674 -0.0686,-0.0932 -0.004,-0.0932 0.11714,0 0.10804,-0.94778 -0.0102,-1.03514 -0.0624,-0.0463 -0.0596,-0.0752 0.0108,-0.10358 0.12425,-0.0504 0.12774,-0.49252 0.004,-0.49252 -0.0725,0 -0.0725,-0.0207 0,-0.0932 0.12212,-0.12212 0.11969,-0.42523 -0.004,-0.48289 -0.0777,-0.0362 -0.0777,-0.0544 0,-0.0906 0.11945,-0.0557 0.12755,-0.35923 0.0127,-0.47413 -0.0608,-0.0608 -0.0608,-0.099 0,-0.13664 0.11586,-0.0716 0.10665,-0.40809 -0.0127,-0.46378 -0.0777,-0.0362 -0.0777,-0.0544 0,-0.0906 0.11945,-0.0558 0.12755,-0.359224 0.0127,-0.474125 -0.0608,-0.0608 -0.0608,-0.09905 0,-0.136638 0.11878,-0.07341 0.10805,-0.795832 -0.0127,-0.852162 -0.0777,-0.03625 -0.0777,-0.05438 0,-0.09062 0.12356,-0.05767 0.12601,-0.360774 0.004,-0.482898 -0.0725,-0.0725 -0.0725,-0.09321 0,-0.09321 0.12379,0 0.12035,-0.440454 -0.004,-0.498432 -0.0777,-0.03625 -0.0777,-0.05437 0,-0.09062 0.12593,-0.05876 0.12593,-0.394355 0,-0.453122 -0.0777,-0.03626 -0.0777,-0.05438 0,-0.09062 0.12423,-0.05798 0.12766,-0.498431 0.004,-0.498431 -0.0725,0 -0.0725,-0.02072 0,-0.09321 0.12212,-0.122122 0.11969,-0.42523 -0.004,-0.482896 -0.0777,-0.03625 -0.0777,-0.05438 0,-0.09062 0.12423,-0.05798 0.12766,-0.49843 0.004,-0.49843 -0.0725,0 -0.0725,-0.02072 0,-0.09321 0.12212,-0.122123 0.11969,-0.425229 -0.004,-0.482894 -0.0777,-0.03625 -0.0777,-0.05438 0,-0.09062 0.11945,-0.05575 0.12755,-0.359227 0.0127,-0.474129 -0.0608,-0.06081 -0.0608,-0.09905 0,-0.136635 0.11586,-0.07161 0.10665,-0.40809 -0.0127,-0.463776 -0.0777,-0.03625 -0.0777,-0.05438 0,-0.09062 0.12616,-0.05887 0.12616,-0.47376 0,-0.524666 -0.0777,-0.03134 -0.0777,-0.04041 0,-0.0453 0.12099,-0.0076 0.13075,-0.4722 0.0101,-0.4722 -0.0602,0 -0.0626,-0.03005 -0.007,-0.0971 0.0483,-0.0592 0.0747,-0.643024 0.0677,-1.495682 l -0.0114,-1.398585 1.09824,0.01465 1.09822,0.01465 0.0472,-0.235846 c 0.0626,-0.313262 -0.004,-0.399854 -0.2668,-0.347269 -0.12,0.024 -0.22935,0.01292 -0.24304,-0.02462 -0.0136,-0.03753 -0.121,-0.04957 -0.23849,-0.02675 -0.14273,0.02773 -0.21361,0.09004 -0.21361,0.187797 0,0.205287 -0.13095,0.18299 -0.16725,-0.02847 -0.0187,-0.109252 0.0367,-0.239787 0.14769,-0.348181 0.0978,-0.09537 0.1858,-0.168892 0.19572,-0.163377 0.0767,0.04266 0.36758,-0.123331 0.36758,-0.209757 0,-0.06335 0.0472,-0.09072 0.11306,-0.06546 0.0627,0.0241 0.20167,-0.04522 0.31248,-0.15603 0.10968,-0.109676 0.20736,-0.195078 0.21707,-0.189779 0.0588,0.03206 0.36721,-0.113885 0.36721,-0.173754 0,-0.03985 0.0525,-0.07244 0.11651,-0.07244 0.0641,0 0.18642,-0.06992 0.27187,-0.155355 0.0855,-0.08545 0.19905,-0.156466 0.25245,-0.157827 0.13849,-0.0036 0.37624,-0.197398 0.31597,-0.257661 -0.0278,-0.02782 0.0423,-0.05057 0.15591,-0.05057 0.11875,0 0.24565,-0.06272 0.29866,-0.147603 0.0508,-0.08118 0.13192,-0.132358 0.18049,-0.113718 0.0486,0.01863 0.17654,-0.04789 0.2844,-0.147844 0.10784,-0.09995 0.2295,-0.170593 0.27033,-0.156983 0.0408,0.01363 0.14257,-0.0372 0.22609,-0.112917 0.0836,-0.07572 0.24796,-0.180359 0.36544,-0.232537 0.11749,-0.05218 0.21362,-0.130581 0.21362,-0.174219 0,-0.04363 0.0699,-0.07934 0.15536,-0.07934 0.0855,0 0.22526,-0.0699 0.3107,-0.155354 0.0855,-0.08545 0.17284,-0.155356 0.1942,-0.155356 h 0.11096 c 0.0397,0 0.1333,-0.06118 0.20808,-0.135936 0.0747,-0.07476 0.1559,-0.137654 0.18031,-0.139755 0.14908,-0.01282 0.39394,-0.134409 0.39394,-0.195608 0,-0.03985 0.0525,-0.07244 0.11651,-0.07244 0.0641,0 0.18643,-0.06991 0.27188,-0.155355 0.0855,-0.08545 0.20779,-0.155356 0.27187,-0.155356 0.0641,0 0.18643,-0.0699 0.27187,-0.155354 0.0855,-0.08545 0.16409,-0.150226 0.17478,-0.143958 0.0497,0.02919 0.36897,-0.106114 0.36897,-0.156385 0,-0.03126 0.12234,-0.101078 0.27187,-0.155147 0.14952,-0.05407 0.27187,-0.131003 0.27187,-0.170961 0,-0.03995 0.0525,-0.07264 0.11651,-0.07264 0.0641,0 0.18643,-0.06991 0.27187,-0.155356 0.0855,-0.08545 0.15536,-0.136979 0.15536,-0.114521 0,0.02246 0.10482,-0.0134 0.23304,-0.07968 0.12816,-0.06628 0.23303,-0.154565 0.23303,-0.19619 0,-0.04163 0.0262,-0.06875 0.0583,-0.0603 0.0942,0.02487 0.4078,-0.09845 0.4078,-0.160376 0,-0.03127 0.12289,-0.101271 0.27309,-0.155585 0.15019,-0.05431 0.253,-0.131243 0.22844,-0.170959 -0.0245,-0.03972 0.0273,-0.07221 0.11531,-0.07221 0.0879,0 0.22329,-0.06335 0.30073,-0.140791 0.0774,-0.07744 0.1774,-0.128587 0.22214,-0.113673 0.0447,0.01492 0.16309,-0.0578 0.26297,-0.161582 0.0999,-0.103781 0.21963,-0.174117 0.26608,-0.156295 0.0464,0.01782 0.16039,-0.03836 0.25325,-0.124851 0.0929,-0.08649 0.2207,-0.157261 0.28416,-0.157261 0.0634,0 0.16697,-0.0737 0.23007,-0.163778 0.0632,-0.09007 0.15217,-0.140626 0.19794,-0.112332 0.0458,0.02828 0.16556,-0.03087 0.26616,-0.131488 0.10061,-0.100611 0.22107,-0.170219 0.26767,-0.154684 0.0467,0.01553 0.15685,-0.04384 0.24496,-0.131964 0.0881,-0.08811 0.20389,-0.16132 0.2573,-0.162678 0.13849,-0.0036 0.37624,-0.197401 0.31598,-0.257664 -0.0278,-0.02782 0.0406,-0.05057 0.15216,-0.05057 0.11815,0 0.25059,-0.06833 0.31745,-0.163777 0.0632,-0.09007 0.15215,-0.140627 0.19793,-0.112333 0.0458,0.02829 0.16377,-0.0291 0.2622,-0.127516 0.0985,-0.09843 0.21233,-0.180908 0.2531,-0.183288 0.1856,-0.01085 0.54565,-0.144213 0.59728,-0.221243 0.0739,-0.110223 0.0679,-0.418278 0.0842,4.361908 0.007,2.274982 -0.0144,4.136333 -0.0491,4.136333 -0.0347,-2e-6 -0.0523,0.113601 -0.0388,0.25245 0.0194,0.200607 -0.0138,0.272562 -0.1609,0.350374 -0.13776,0.07282 -0.21216,0.07558 -0.2903,0.01075 -0.0578,-0.04795 -0.15368,-0.06854 -0.2131,-0.04574 -0.0595,0.0228 -0.1422,0.0073 -0.18395,-0.03445 -0.10153,-0.101524 -0.48676,4.39e-4 -0.48676,0.128833 0,0.0559 -0.0404,0.115114 -0.09,0.131603 -0.0561,0.01872 -0.0707,0.10693 -0.0386,0.234793 0.0434,0.17267 0.10755,0.213229 0.40924,0.258471 0.20518,0.03077 0.37904,0.02207 0.40751,-0.02037 0.0933,-0.139051 0.30995,-0.170272 0.40306,-0.05807 0.0511,0.06153 0.13882,0.111898 0.19498,0.111898 0.0733,0 0.0896,0.07665 0.0581,0.271872 -0.0243,0.149529 -0.0133,0.271871 0.0243,0.271871 0.0775,-2e-6 0.079,5.879968 0.001,5.957416 -0.0867,0.08667 -0.0535,0.397401 0.0474,0.444515 0.0777,0.03625 0.0777,0.05437 0,0.09062 -0.12065,0.0563 -0.12944,0.498433 -0.0102,0.498433 0.0612,0 0.0631,0.02911 0.006,0.09765 -0.0466,0.05608 -0.0771,0.451796 -0.0718,0.92965 0.005,0.457608 -0.0151,0.856432 -0.045,0.886279 -0.0299,0.02985 -0.0543,0.135828 -0.0543,0.235513 0,0.143701 -0.0421,0.181248 -0.20327,0.181248 -0.16195,0 -0.19534,0.0302 -0.16438,0.148655 0.0269,0.102717 -0.008,0.161177 -0.11604,0.189169 -0.10525,0.02751 -0.16649,-0.0038 -0.19101,-0.09749 -0.0319,-0.122088 -0.0802,-0.129278 -0.41863,-0.06236 -0.35177,0.06955 -0.38256,0.09356 -0.38256,0.298377 0,0.1441 0.0403,0.22274 0.11408,0.22274 0.0673,0 0.0966,0.0458 0.0713,0.11162 -0.0236,0.0614 -0.0849,0.0955 -0.13623,0.0758 -0.0514,-0.0197 -0.16935,0.0349 -0.26219,0.12142 -0.0929,0.0865 -0.21611,0.15726 -0.27393,0.15726 -0.0579,0 -0.18016,0.0699 -0.27186,0.15535 -0.0917,0.0854 -0.21867,0.15536 -0.28212,0.15536 -0.0634,0 -0.16698,0.0737 -0.23008,0.16377 -0.0631,0.0901 -0.15215,0.14063 -0.19794,0.11234 -0.0458,-0.0283 -0.16555,0.0309 -0.26616,0.13149 -0.10061,0.10061 -0.22107,0.17021 -0.26767,0.15468 -0.0466,-0.0155 -0.15684,0.0438 -0.24495,0.13196 -0.0881,0.0881 -0.20391,0.16132 -0.25731,0.16268 -0.13849,0.004 -0.37624,0.1974 -0.31597,0.25766 0.0278,0.0278 -0.0423,0.0506 -0.1559,0.0506 -0.11875,0 -0.24565,0.0627 -0.29867,0.14761 -0.0508,0.0812 -0.13683,0.13047 -0.1914,0.10953 -0.0545,-0.0209 -0.18279,0.0455 -0.28495,0.14766 -0.10214,0.10216 -0.22385,0.17302 -0.27046,0.15748 -0.0467,-0.0155 -0.15684,0.0439 -0.24496,0.13197 -0.0881,0.0881 -0.2039,0.16132 -0.25731,0.16268 -0.1495,0.004 -0.37359,0.19932 -0.30949,0.27004 0.0314,0.0346 -0.006,0.0403 -0.0832,0.0125 -0.0916,-0.0329 -0.20198,0.0113 -0.31821,0.12753 -0.0979,0.0979 -0.2161,0.16525 -0.26271,0.14971 -0.0467,-0.0155 -0.15683,0.0439 -0.24495,0.13197 -0.088,0.0881 -0.21263,0.16021 -0.27672,0.16021 -0.0641,0 -0.18138,0.0648 -0.26063,0.14411 -0.0792,0.0793 -0.23656,0.16732 -0.34955,0.19568 -0.11298,0.0284 -0.20543,0.10485 -0.20543,0.17 0,0.0651 -0.0437,0.11005 -0.0971,0.0998 -0.17069,-0.0328 -0.44664,0.0962 -0.44664,0.20881 0,0.0622 -0.0473,0.0907 -0.11051,0.0664 -0.0607,-0.0233 -0.18313,0.0302 -0.27187,0.11896 -0.0887,0.0887 -0.21379,0.16136 -0.27787,0.16136 -0.0641,0 -0.18643,0.0699 -0.27187,0.15535 -0.0855,0.0854 -0.18157,0.15578 -0.21362,0.15629 -0.1703,0.003 -0.33013,0.10103 -0.33013,0.20308 0,0.0637 -0.0324,0.0959 -0.0718,0.0714 -0.10535,-0.0651 -0.47188,0.12086 -0.47188,0.23947 0,0.0559 -0.0496,0.0826 -0.11051,0.0592 -0.0607,-0.0233 -0.18312,0.0302 -0.27188,0.11895 -0.0887,0.0887 -0.21379,0.16136 -0.27787,0.16136 -0.0641,0 -0.18642,0.0699 -0.27187,0.15536 -0.0855,0.0854 -0.18158,0.15577 -0.21361,0.15628 -0.1416,0.002 -0.33014,0.0934 -0.33014,0.15966 0,0.0398 -0.0525,0.0724 -0.11651,0.0724 -0.0641,0 -0.18643,0.0699 -0.27187,0.15536 -0.0855,0.0854 -0.20779,0.15535 -0.27187,0.15535 -0.0641,0 -0.18643,0.0699 -0.27187,0.15536 -0.0855,0.0854 -0.17283,0.15535 -0.19419,0.15535 h -0.11098 c -0.0397,0 -0.1333,0.0612 -0.20806,0.13594 -0.0747,0.0748 -0.15591,0.13765 -0.18032,0.13975 -0.14908,0.0128 -0.39395,0.13441 -0.39395,0.19561 0,0.0399 -0.0525,0.0724 -0.11651,0.0724 -0.0641,0 -0.18643,0.0699 -0.27187,0.15536 -0.0855,0.0854 -0.20779,0.15535 -0.27187,0.15535 -0.0641,0 -0.18642,0.0699 -0.27187,0.15536 -0.0855,0.0854 -0.1641,0.15022 -0.17478,0.14396 -0.0497,-0.0292 -0.36897,0.10611 -0.36897,0.15638 0,0.0313 -0.12234,0.10108 -0.27186,0.15515 -0.14953,0.0541 -0.27187,0.131 -0.27187,0.17096 0,0.04 -0.0525,0.0726 -0.11653,0.0726 -0.0641,0 -0.11651,-0.035 -0.11651,-0.0777 z m 1.1923,-5.97974 c 0.0363,-0.0349 0.0416,-0.14035 0.0117,-0.23431 -0.0491,-0.15496 -0.0878,-0.16582 -0.41553,-0.11677 -0.45889,0.0687 -0.46461,0.073 -0.41811,0.31621 0.0371,0.19404 0.0551,0.20091 0.39738,0.15082 0.19719,-0.0289 0.38822,-0.081 0.42451,-0.11595 z m 1.14703,-0.20133 c 0.0263,-0.0162 0.0304,-0.12091 0.008,-0.23273 -0.0371,-0.19404 -0.0551,-0.20091 -0.39739,-0.15082 -0.43023,0.063 -0.5077,0.12518 -0.43625,0.35027 0.0491,0.15495 0.0878,0.16581 0.41552,0.11677 0.19871,-0.0297 0.38283,-0.0673 0.40914,-0.0835 z m 0.86488,-0.16067 c 0.24233,-0.0401 0.29129,-0.0795 0.29129,-0.23461 0,-0.23458 -0.15075,-0.29405 -0.52336,-0.20647 -0.2392,0.0562 -0.29671,0.10702 -0.31684,0.27982 -0.027,0.23222 0.0258,0.24773 0.54891,0.16126 z m 1.39251,-0.32119 c 0.0324,-0.0324 0.0377,-0.14013 0.0116,-0.23947 -0.0436,-0.1665 -0.0752,-0.17652 -0.40527,-0.12821 -0.43177,0.0632 -0.48352,0.10507 -0.42175,0.34126 0.0439,0.16763 0.0764,0.17848 0.40212,0.13385 0.19492,-0.0267 0.3809,-0.0751 0.41327,-0.10744 z m 0.86013,-0.14487 c 0.26074,-0.0431 0.2913,-0.0725 0.2913,-0.27984 v -0.23169 l -0.36898,0.0552 c -0.44571,0.0667 -0.48548,0.0884 -0.48548,0.26477 0,0.24875 0.071,0.27289 0.56316,0.19153 z m 1.44496,-0.30114 c 0.0165,-0.0166 0.007,-0.12201 -0.021,-0.23428 -0.0481,-0.19185 -0.0709,-0.20087 -0.3783,-0.15001 -0.42245,0.0699 -0.44358,0.0853 -0.44358,0.32265 0,0.1958 0.007,0.19859 0.40641,0.1457 0.22351,-0.0297 0.41996,-0.0675 0.43654,-0.0841 z m 1.12521,-0.41904 c -0.0631,-0.26395 -0.039,-0.25198 -0.39353,-0.1953 -0.42721,0.0683 -0.50478,0.13007 -0.44793,0.35659 0.047,0.18732 0.0588,0.19022 0.46886,0.11589 0.40036,-0.0726 0.41833,-0.0859 0.3726,-0.27718 z m 1.13894,-0.20664 c 0,-0.24384 -0.0898,-0.28168 -0.46713,-0.1969 -0.39558,0.0889 -0.41767,0.10999 -0.35907,0.34342 0.0452,0.17999 0.0613,0.18404 0.43655,0.10984 0.33297,-0.0658 0.38965,-0.10313 0.38965,-0.25636 z m 0.87985,7e-5 c 0.27403,-0.0486 0.29326,-0.0687 0.24614,-0.25643 -0.0281,-0.11203 -0.0606,-0.21323 -0.0724,-0.22488 -0.0116,-0.0116 -0.19478,0.016 -0.40695,0.0615 -0.37011,0.0794 -0.38438,0.0921 -0.35173,0.31465 0.025,0.1699 0.0679,0.22202 0.16082,0.19489 0.0697,-0.0204 0.26054,-0.0608 0.42404,-0.0898 z m 1.14487,-0.22922 c 0.25377,-0.0448 0.27417,-0.0679 0.24363,-0.27601 -0.0183,-0.12489 -0.0452,-0.22707 -0.0596,-0.22707 -0.23661,0 -0.81062,0.19257 -0.81062,0.27195 0,0.21204 0.0992,0.35319 0.2228,0.31708 0.0696,-0.0204 0.25138,-0.059 0.40372,-0.0859 z m 1.14065,-0.23158 c 0.16458,-0.0331 0.25203,-0.096 0.25126,-0.18058 -0.002,-0.2704 -0.0988,-0.31693 -0.48547,-0.23446 -0.30652,0.0654 -0.36779,0.10758 -0.36779,0.2534 0,0.21628 0.0685,0.29045 0.22741,0.24634 0.0672,-0.0186 0.23573,-0.0568 0.37459,-0.0847 z m 1.02527,-0.20023 c 0.37213,-0.0798 0.38955,-0.0946 0.34245,-0.2913 -0.0273,-0.11396 -0.0534,-0.21277 -0.0582,-0.21958 -0.004,-0.007 -0.19382,0.0244 -0.42034,0.0694 -0.307,0.0609 -0.40094,0.11019 -0.36897,0.19351 0.0236,0.0615 0.0429,0.16134 0.0429,0.22193 0,0.13187 -0.0247,0.13048 0.46212,0.0261 z m 1.34389,-0.2765 c 0.12569,-0.0354 0.19205,-0.3342 0.0955,-0.430618 -0.0789,-0.07897 -0.81414,0.112978 -0.81414,0.212558 0,0.34399 0.13055,0.38361 0.71851,0.21806 z m -6.69969,-10.747317 c 0,-0.04272 0.0545,-0.07768 0.12121,-0.07768 0.0926,0 0.1155,-0.06884 0.0971,-0.291289 -0.0219,-0.264391 -0.0439,-0.289941 -0.23772,-0.276669 -0.11748,0.008 -0.21361,-0.02197 -0.21361,-0.06668 0,-0.117147 -0.39857,-0.0025 -0.50704,0.145781 -0.0803,0.109901 -0.0947,0.108422 -0.14193,-0.01461 -0.0399,-0.103802 -0.10729,-0.125942 -0.2789,-0.09161 -0.1245,0.0249 -0.23757,0.01457 -0.25125,-0.02298 -0.0474,-0.130143 -0.45211,0.0081 -0.45211,0.154576 0,0.0769 -0.0437,0.154532 -0.0971,0.172506 -0.0777,0.02611 -0.0776,0.05642 4.3e-4,0.150834 0.14683,0.177964 1.0069,0.177757 1.05383,-2.2e-4 0.0255,-0.09645 0.0371,-0.08629 0.0437,0.03813 0.006,0.122384 0.0685,0.178627 0.22262,0.201974 0.41355,0.06265 0.64084,0.05483 0.64084,-0.02204 z m 1.16516,0.009 c 0,-0.03774 0.0699,-0.08691 0.15535,-0.109245 0.0855,-0.02235 0.15536,-0.0111 0.15536,0.02502 0,0.09601 0.70668,0.187374 0.76595,0.09903 0.0273,-0.04071 0.11084,-0.0966 0.18561,-0.124186 0.26101,-0.0963 0.12893,-0.633095 -0.14466,-0.587987 -0.0806,0.01329 -0.18872,-0.0022 -0.24015,-0.03452 -0.14226,-0.08928 -0.48907,0.02469 -0.48907,0.16071 0,0.10234 -0.0225,0.0997 -0.15247,-0.01784 -0.0906,-0.08192 -0.20633,-0.117301 -0.28507,-0.08709 -0.0729,0.02799 -0.1562,0.01272 -0.18504,-0.03392 -0.0719,-0.116448 -0.46491,-0.0092 -0.46491,0.126811 0,0.05945 -0.0373,0.108096 -0.0827,0.108096 -0.0456,0 -0.0718,0.09612 -0.0583,0.213613 0.0158,0.137957 0.0708,0.213965 0.15503,0.214604 0.0717,4.4e-4 0.15622,0.02676 0.18771,0.05826 0.0809,0.08095 0.49744,0.07144 0.49744,-0.01135 z m 2.33034,-0.01123 c 0,-0.08475 0.5064,-0.06105 0.59532,0.02787 0.0819,0.08198 0.49216,0.06056 0.49216,-0.02569 0,-0.04272 0.0525,-0.07768 0.11651,-0.07768 0.0641,0 0.11652,-0.03495 0.11652,-0.07768 0,-0.04272 0.0349,-0.07768 0.0777,-0.07768 0.0426,0 0.0777,0.04916 0.0777,0.109226 0,0.15058 0.77055,0.25956 0.85613,0.121087 0.0376,-0.06065 0.11476,-0.07509 0.2041,-0.03813 0.079,0.0327 0.32729,0.07462 0.55158,0.09315 0.33141,0.02737 0.40781,0.01108 0.40781,-0.08699 0,-0.06637 0.0372,-0.12067 0.0825,-0.12067 0.0464,0 0.072,-0.110637 0.0583,-0.252417 -0.0238,-0.246797 -0.0334,-0.25282 -0.43024,-0.270333 -0.34831,-0.01538 -0.41883,0.0062 -0.49706,0.152444 l -0.0912,0.170357 -0.0669,-0.180802 c -0.0518,-0.14001 -0.11051,-0.172459 -0.26027,-0.143828 -0.10633,0.02031 -0.19341,0.0069 -0.19341,-0.02993 0,-0.13893 -0.29646,-0.05909 -0.50777,0.136746 l -0.21974,0.203651 -0.0641,-0.173092 c -0.0508,-0.137271 -0.10407,-0.163036 -0.25768,-0.124495 -0.12062,0.03028 -0.19362,0.01557 -0.19362,-0.03898 0,-0.122961 -0.39448,-0.01444 -0.50704,0.139506 -0.0804,0.110003 -0.0946,0.108661 -0.14145,-0.01337 -0.0383,-0.09967 -0.10344,-0.122772 -0.24553,-0.0871 -0.12049,0.03024 -0.19347,0.01551 -0.19347,-0.03902 0,-0.125604 -0.394,-0.01322 -0.51903,0.148029 -0.14061,0.181378 -0.0972,0.518918 0.0669,0.520163 0.0717,4.4e-4 0.15622,0.02676 0.18772,0.05826 0.087,0.08703 0.49744,0.06839 0.49744,-0.02259 z m -7.98548,-0.223737 c -0.0129,-0.06017 0.0198,-0.136153 0.0727,-0.168855 0.14411,-0.08906 -0.0721,-0.317464 -0.27551,-0.291198 -0.0891,0.01149 -0.1972,-0.0011 -0.24016,-0.0278 -0.11391,-0.07104 -0.51059,0.01957 -0.45802,0.104629 0.0245,0.03971 0.006,0.11867 -0.0411,0.175468 -0.0471,0.0568 -0.0644,0.158875 -0.0383,0.226842 0.0651,0.169399 1.01695,0.150866 0.9804,-0.0191 z m 1.19123,-0.01512 c 0.0257,-0.08104 0.0234,-0.220929 -0.005,-0.310854 -0.042,-0.132476 -0.0946,-0.154953 -0.27711,-0.118459 -0.12386,0.02477 -0.22521,0.01398 -0.22521,-0.02398 0,-0.03796 -0.0961,-0.04327 -0.21361,-0.01183 -0.18408,0.04929 -0.21188,0.09401 -0.20102,0.323414 0.006,0.146416 0.0157,0.273629 0.0195,0.282698 0.004,0.009 0.19786,0.01421 0.43136,0.01143 0.34601,-0.0041 0.43318,-0.03231 0.4713,-0.152423 z m 1.15872,-0.147354 c 0.003,-0.252495 -0.0127,-0.27143 -0.22913,-0.265685 -0.12818,0.0035 -0.2506,-0.01962 -0.27207,-0.05117 -0.0215,-0.03154 -0.13138,-0.0397 -0.24425,-0.01812 -0.15263,0.02918 -0.21717,0.09905 -0.2519,0.272753 -0.0257,0.12844 -0.0294,0.261524 -0.008,0.295743 0.0212,0.03422 0.25518,0.05684 0.52008,0.05029 l 0.48162,-0.01194 z"
       id="path41830" />
    <path
       style="fill:#d8f4a6;fill-opacity:0.970675;stroke:#b8c90a;stroke-width:0.136516;stroke-dasharray:0.819102, 0.273035;stroke-dashoffset:0;stroke-opacity:1"
       d="m 24.31977,110.67096 0.01973,-9.7119 8.45591,-4.96354 c 4.650749,-2.729946 8.469574,-4.96354 8.486279,-4.96354 0.0167,0 0.02918,4.41306 0.02772,9.8068 l -0.0026,9.8068 -4.444392,2.54115 c -2.444418,1.39764 -6.270925,3.58852 -8.50335,4.86864 l -4.058957,2.32749 z"
       id="path41836" />
    <path
       style="fill:#d8f4a6;fill-opacity:0.970675;stroke:#b8c90a;stroke-width:0.136516;stroke-dasharray:0.819102, 0.273035;stroke-dashoffset:0;stroke-opacity:1"
       d="m 41.952589,100.41286 0.01971,-9.8055 8.428019,-4.94841 c 4.635413,-2.721625 8.559101,-5.022736 8.719313,-5.113577 l 0.29129,-0.165166 v 9.935909 9.935904 l -8.690793,4.98317 c -4.779935,2.74074 -8.712498,4.98316 -8.73903,4.98316 -0.02654,0 -0.03936,-4.41247 -0.02851,-9.80549 z"
       id="path42459" />
    <path
       style="fill:#d8f4a6;fill-opacity:0.970675;stroke:#b8c90a;stroke-width:0.136516;stroke-dasharray:0.819102, 0.273035;stroke-dashoffset:0;stroke-opacity:1"
       d="m 24.300651,131.32547 v -10.19696 l 8.486279,-4.86611 8.486281,-4.86611 0.02433,5.99421 c 0.01337,3.29682 4.41e-4,7.88947 -0.02865,10.20588 l -0.053,4.21167 -8.41324,4.85719 c -4.62728,2.67146 -8.433212,4.85718 -8.457623,4.85718 -0.02442,0 -0.04438,-4.58863 -0.04438,-10.19695 z"
       id="path42461" />
    <path
       style="fill:#d8f4a6;fill-opacity:0.970675;stroke:#b8c90a;stroke-width:0.136516;stroke-dasharray:0.819102, 0.273035;stroke-dashoffset:0;stroke-opacity:1"
       d="m 41.933469,121.18269 v -10.16397 l 8.690792,-4.98316 c 4.779936,-2.74074 8.712365,-4.98317 8.738732,-4.98317 0.02636,0 0.04794,4.5562 0.04794,10.12488 v 10.12487 l -8.698796,5.02226 c -4.784336,2.76225 -8.716768,5.02226 -8.738731,5.02226 -0.02197,0 -0.03993,-4.57378 -0.03993,-10.16397 z"
       id="path42463" />
    <path
       style="fill:#f0f080;fill-opacity:0.970675;stroke:#90d859;stroke-width:0.386128;stroke-dasharray:0.772256, 0.386128;stroke-dashoffset:0;stroke-opacity:1"
       d="M 150.19335,89.7599 23.862709,100.74518"
       id="path32677" />
    <path
       style="fill:none;fill-opacity:0.970675;stroke:#eaf64d;stroke-width:1.03939;stroke-linecap:round;stroke-dasharray:2.07879, 4.15756;stroke-dashoffset:0;stroke-opacity:1"
       d="m 24.411714,101.34865 0.231054,60.13594 52.911343,-30.14468 V 70.436926 Z"
       id="path44471" />
    <text
       xml:space="preserve"
       transform="scale(0.26597571)"
       id="text50061"
       style="font-size:26.6667px;text-align:center;white-space:pre;shape-inside:url(#rect50063);display:inline;fill:#000000;fill-opacity:0.141176;stroke:#000000;stroke-width:4.7811;stroke-linecap:round;stroke-dasharray:none;stroke-dashoffset:0;stroke-opacity:1" />
    <text
       xml:space="preserve"
       transform="matrix(0.23275654,-0.1287147,0.1287147,0.23275654,-11.169858,36.159813)"
       id="text51423"
       style="font-size:26.6667px;text-align:center;white-space:pre;shape-inside:url(#rect51425);display:inline;fill:#000000;fill-opacity:1;stroke:#000000;stroke-width:1.37953;stroke-linecap:round;stroke-dasharray:none;stroke-dashoffset:0;stroke-opacity:1"><tspan
         x="57.049071"
         y="172.82103"
         id="tspan52323">Επίπεδο 1</tspan></text>
    <text
       xml:space="preserve"
       style="font-size:7.09269px;text-align:center;text-anchor:middle;fill:#000000;fill-opacity:1;stroke:#000000;stroke-width:0.366921;stroke-linecap:round;stroke-dasharray:none;stroke-dashoffset:0;stroke-opacity:1"
       x="106.602"
       y="127.96492"
       id="text51431"
       transform="rotate(-31.973921)"><tspan
         sodipodi:role="line"
         id="tspan51429"
         style="stroke-width:0.366921"
         x="106.602"
         y="127.96492">Επίπεδο 2</tspan></text>
    <text
       xml:space="preserve"
       style="font-size:7.09269px;text-align:center;text-anchor:middle;fill:#000000;fill-opacity:1;stroke:#000000;stroke-width:0.366921;stroke-linecap:round;stroke-dasharray:none;stroke-dashoffset:0;stroke-opacity:1"
       x="196.23444"
       y="183.50775"
       id="text51435"
       transform="rotate(-30.88518)"><tspan
         sodipodi:role="line"
         id="tspan51433"
         style="stroke-width:0.366921"
         x="196.23444"
         y="183.50775">Επίπεδο 3</tspan></text>
  </g>
</svg>
