<?xml version="1.0" encoding="UTF-8" standalone="no"?>
<!-- Created with Inkscape (http://www.inkscape.org/) -->
<svg
   xmlns:dc="http://purl.org/dc/elements/1.1/"
   xmlns:cc="http://web.resource.org/cc/"
   xmlns:rdf="http://www.w3.org/1999/02/22-rdf-syntax-ns#"
   xmlns:svg="http://www.w3.org/2000/svg"
   xmlns="http://www.w3.org/2000/svg"
   xmlns:sodipodi="http://sodipodi.sourceforge.net/DTD/sodipodi-0.dtd"
   xmlns:inkscape="http://www.inkscape.org/namespaces/inkscape"
   id="svg2"
   sodipodi:version="0.32"
   inkscape:version="0.45.1"
   width="237"
   height="327"
   version="1.0"
   sodipodi:docbase="C:\Documents and Settings\Owner\My Documents\Pictures\Temporary for Wikipedia"
   sodipodi:docname="My_Wife_and_My_Mother-In-Law_(Hill).svg"
   inkscape:output_extension="org.inkscape.output.svg.inkscape">
  <metadata
     id="metadata7">
    <rdf:RDF>
      <cc:Work
         rdf:about="">
        <dc:format>image/svg+xml</dc:format>
        <dc:type
           rdf:resource="http://purl.org/dc/dcmitype/StillImage" />
      </cc:Work>
    </rdf:RDF>
  </metadata>
  <defs
     id="defs5" />
  <sodipodi:namedview
     inkscape:window-height="573"
     inkscape:window-width="744"
     inkscape:pageshadow="2"
     inkscape:pageopacity="0.0"
     guidetolerance="10.0"
     gridtolerance="10.0"
     objecttolerance="10.0"
     borderopacity="1.0"
     bordercolor="#666666"
     pagecolor="#ffffff"
     id="base"
     inkscape:zoom="0.81522708"
     inkscape:cx="81.897139"
     inkscape:cy="1.4417717"
     inkscape:window-x="22"
     inkscape:window-y="29"
     inkscape:current-layer="svg2" />
  <path
     style="fill:#000000"
     d="M 1,305.47525 C 1,284.07649 1.0131702,283.94543 3.25,283.08468 C 5.8356002,282.08971 10,276.81839 10,274.54049 C 10,273.69322 10.45,272.94375 11,272.875 C 11.55,272.80625 12.3375,272.66716 12.75,272.56591 C 13.1625,272.46466 15.4125,272.03136 17.75,271.60301 C 20.0875,271.17467 22,270.40262 22,269.88735 C 22,269.37208 23.125,268.52277 24.5,268 C 25.875,267.47723 27,266.38924 27,265.58225 C 27,264.57097 28.320762,264.01944 31.25,263.8075 C 34.783024,263.55187 35.553908,263.12042 35.819551,261.25 C 36.184094,258.6832 36.038638,258.71195 41.865021,260.05533 C 47.246521,261.29613 50.434791,260.4977 49.434802,258.15966 C 48.01095,254.83059 45.666165,232.20277 45.58417,221 C 45.516477,211.75118 45.15743,209.016 43.75,207.02749 C 42.7875,205.66762 42,204.01193 42,203.34819 C 42,202.68445 44.552329,200.19707 47.671841,197.82069 C 53.586599,193.31495 55.822383,190.21292 52.383881,191.28298 C 46.534975,193.10317 46,193.17415 46,192.13005 C 46,191.52329 47.4625,190.40791 49.25,189.65144 C 53.062198,188.03811 56.467481,184.51283 56.486549,182.15988 C 56.500331,180.45916 52.177746,175.83242 47.740088,172.79798 C 46.371093,171.86187 43.669513,167.81187 41.736577,163.79798 C 39.803642,159.78409 37.272166,155.64276 36.111075,154.59501 C 34.949984,153.54727 34,152.13987 34,151.46746 C 34,150.79504 33.368521,149.72081 32.596714,149.08027 C 31.824907,148.43972 29.946716,145.36745 28.422956,142.253 C 25.665776,136.61753 25.658894,136.55176 26.988564,128.54518 C 27.723409,124.12033 28.395279,117.8 28.481608,114.5 C 28.6464,108.20071 29.792408,105.41062 35.141319,98.286201 C 37.785022,94.764949 38.095439,93.819923 37.030044,92.536201 C 36.328831,91.69129 35.135211,91 34.377555,91 C 33.6199,91 33,90.515385 33,89.923077 C 33,89.330769 31.7625,87.607909 30.25,86.0945 C 27.505836,83.348685 21.266683,73.628416 17.993807,67 C 13.830735,58.56871 14.814436,41.405608 20.087375,30.472505 C 21.838166,26.842351 23.77224,23.31947 24.385316,22.643881 C 24.998392,21.968291 25.95,20.617249 26.5,19.641564 C 27.05,18.665879 30.425,16.237159 34,14.244407 C 39.987286,10.907017 41.234101,10.598911 49.806658,10.338362 C 56.969502,10.120659 59.733734,9.6219948 61.806658,8.1735779 C 64.450105,6.3265182 67.641203,5.2630649 73.390527,4.313182 C 84.066258,2.5493751 97.851205,18.411432 94.963251,29.136475 C 93.473211,34.670061 89.739508,38.613272 85.274685,39.368695 C 83.198608,39.719956 80.035972,40.281996 78.246605,40.617673 C 75.265912,41.176837 74.879134,40.946021 73.632276,37.863998 C 72.883762,36.013799 72.211631,32.539067 72.138652,30.142371 C 72.065672,27.745675 71.44212,24.616233 70.752981,23.188056 C 69.075311,19.711241 61.432479,14 58.457444,14 C 55.488219,14 53.309758,17.463383 54.998837,19.498598 C 56.343451,21.11876 55.936546,27.726638 54.536909,27 C 54.007209,26.725 53.708929,25.211927 53.874064,23.637615 C 54.381338,18.801532 51.832701,21.077542 49.480982,27.560771 C 48.296068,30.827347 46.985929,34.4 46.569561,35.5 C 44.944178,39.794095 44.098065,42.639303 43.447052,46 C 43.074154,47.925 42.424127,49.95 42.002548,50.5 C 40.365815,52.635316 38.738913,88.072246 40.210074,89.543407 C 40.477315,89.810649 45.151875,85.444782 50.597984,79.841482 C 65.909345,64.088189 65.994142,64.0071 67.284478,63.88465 C 67.953015,63.821208 69.133613,63.708708 69.908029,63.63465 C 70.682445,63.560593 71.807445,62.127317 72.408029,60.449593 C 73.008613,58.771869 74.499732,56.020333 75.721628,54.335068 C 78.858306,50.008891 81.241063,49.68171 107.5,49.971523 C 120.78161,50.118108 122.9323,49.532633 136.5,42.076957 C 139.25,40.565787 144.425,36.330728 148,32.665716 C 151.575,29.000705 155.175,25.995047 156,25.986476 C 156.825,25.977906 159.32746,25.333956 161.56102,24.555477 C 170.28747,21.513988 196.02604,25.670366 210.5,32.45836 C 214.35,34.263932 218.36562,36.040297 219.42359,36.405838 C 223.99985,37.986978 236.93083,46.424713 235.82505,47.108125 C 235.17858,47.507664 233.26598,46.810187 231.57483,45.558175 C 227.15576,42.286612 211.09542,34.348526 203,31.434599 C 191.82666,27.412784 165.74443,26.287735 157.01637,29.451108 C 145.96923,33.455 145.29839,36.131943 154.96088,37.65341 C 158.78936,38.256248 164.25676,39.970421 167.11066,41.462683 C 170.18691,43.071212 173.27259,43.989883 174.68942,43.719039 C 176.17092,43.435832 176.9377,43.687469 176.70681,44.381095 C 176.05787,46.330551 172.12304,45.818217 166.18831,43.011536 C 155.53811,37.974785 146.11339,38.40016 137.03348,44.327411 C 126.577,51.15327 119.37491,52.933495 100.27376,53.413735 C 93.248193,53.590372 86.752194,53.927603 85.838209,54.163137 C 82.577675,55.003378 73.846131,61.038392 74.229032,62.187095 C 74.443477,62.830432 77.742173,63.977871 81.559466,64.736959 C 85.37676,65.496048 90.329576,66.990768 92.565724,68.05856 C 94.801873,69.126352 97.051873,70.004783 97.565724,70.010628 C 98.079576,70.016474 100.75,71.811691 103.5,74 C 109.10756,78.46221 110.59764,78.98521 108.95416,75.914354 C 107.52562,73.245088 108.57425,72.145683 110.6085,74.179928 C 112.20225,75.773682 116.93149,90.87364 116.97561,94.509453 C 116.98903,95.614652 117.8565,97.0538 118.90333,97.707559 C 120.02187,98.406097 121.09961,100.63008 121.51711,103.1013 C 121.92979,105.5439 123.21981,108.22598 124.59494,109.50041 C 125.92506,110.73313 127.23215,113.39222 127.57815,115.56938 C 128.12651,119.01978 128.85071,121.3681 131.56586,128.5 C 131.98463,129.6 132.39684,130.725 132.48186,131 C 133.4138,134.01409 139.62515,145.25578 141.0921,146.58335 C 143.38379,148.6573 143.54409,150 141.5,150 C 140.675,150 140,149.55 140,149 C 140,148.45 139.58141,148 139.06981,148 C 138.49833,148 138.50232,149.25333 139.08014,151.25 C 139.59743,153.0375 140.09597,158.325 140.188,163 C 140.32228,169.82115 139.90678,172.58632 138.08432,177 C 134.78093,185.00024 134.35057,185.85177 129.99803,193 C 126.38781,198.92911 118.29498,214.87738 115.78964,221 C 115.227,222.375 114.44924,224.175 114.06128,225 C 113.12263,226.99605 112.58613,234.69189 112.70189,244.5 C 112.84074,256.26585 116.22098,271.25965 120.70509,280 C 121.41051,281.375 121.99045,284.4125 121.99384,286.75 C 121.99723,289.0875 122.27274,291 122.6061,291 C 124.01263,291 131,284.71608 131,283.45115 C 131,282.13061 133.3838,280.33941 135.5,280.06984 C 141.46483,279.31 143.93815,277.75922 146.00953,273.48031 C 147.20401,271.01285 148.56369,269.23034 149.03104,269.51918 C 149.49839,269.80802 150.6951,269.22638 151.69039,268.22664 C 152.68567,267.22689 154.73417,265.87808 156.24261,265.22927 C 158.18223,264.39499 158.91418,263.41587 158.74261,261.88504 C 158.48796,259.61304 159.25162,259.19921 167.70815,257.02659 C 170.90536,256.20518 171.77123,255.56741 171.31243,254.3718 C 170.6039,252.5254 172.57178,251.03694 175.75,251.01531 C 176.9875,251.00689 178,250.55 178,250 C 178,249.45 177.35156,249 176.55902,249 C 173.8181,249 173.92877,247.056 176.7091,246.36367 C 178.2441,245.98144 180.01219,244.97495 180.6382,244.12701 C 181.2642,243.27908 183.13043,242.55284 184.78536,242.51314 C 186.94983,242.46123 189.01599,241.21717 192.14716,238.08053 C 194.54122,235.68229 198.075,232.71191 200,231.47969 C 201.925,230.24747 204.45805,228.17296 205.629,226.86965 C 207.79121,224.46304 214,208.74479 214,205.67751 C 214,204.75488 214.675,204 215.5,204 C 216.325,204 217,204.1531 217,204.34023 C 217,204.82369 211.4097,221.14147 210.51516,223.2691 C 209.80372,224.96123 209.90658,224.96123 212.87936,223.2691 C 214.58876,222.29609 215.9902,221.22924 215.99368,220.89831 C 215.99715,220.56739 217.27636,218.96104 218.83636,217.32865 C 220.39635,215.69627 222.3062,212.92953 223.08047,211.18034 C 224.60524,207.73564 226,207.00723 226,209.65561 C 226,213.78757 212.92901,227.18682 204,232.2081 C 196.29486,236.54113 191.86181,239.96738 192.54028,241.06518 C 192.85805,241.57933 194.66648,242 196.55902,242 C 199.33333,242 200,242.38749 200,244 C 200,245.47897 200.66667,246 202.55902,246 C 204.11681,246 204.86014,245.58272 204.45888,244.93347 C 204.09634,244.34687 204.63229,243.2305 205.64986,242.45264 C 209.20946,239.73159 223.64515,242.45765 226.98468,246.48155 C 227.6778,247.3167 228.86479,248 229.62244,248 C 230.3801,248 231,248.41186 231,248.91523 C 231,249.41861 232.35,251.10465 234,252.66199 L 237,255.49351 L 237,291.24675 L 237,327 L 151.41667,327 C 90.628581,327 65.937535,326.68739 66.192997,325.92101 C 66.390812,325.32756 67.890812,324.09006 69.526331,323.17101 C 71.161849,322.25195 72.725,321.26584 73,320.97965 C 74.01638,319.92189 79.15303,318 80.96372,318 C 81.992007,318 82.983333,317.58375 83.166667,317.075 C 83.35,316.56625 84.173045,316.00375 84.995656,315.825 C 85.818267,315.64625 88.009949,313.8125 89.86606,311.75 C 91.969443,309.41273 94.137271,308 95.620404,308 C 96.929182,308 98,307.55 98,307 C 98,306.45 97.325,306 96.5,306 C 95.675,306 95,305.55 95,305 C 95,304.44146 97.759103,303.99397 101.25,303.98635 C 104.6875,303.97884 108.625,303.66675 110,303.29282 L 112.5,302.61294 L 110,302.01139 C 106.61669,301.19729 106.7875,298.58198 110.25,298.18358 C 111.7625,298.00955 113,297.44705 113,296.93358 C 113,296.42011 113.675,296 114.5,296 C 116.09968,296 116.16676,295.85643 116.36894,292 C 116.47075,290.05794 116.05365,289.5489 114.5,289.7191 C 109.22488,290.297 93.686769,290.18122 86.75,289.51233 C 80.820873,288.94061 79,289.0585 79,290.0141 C 79,290.70109 75.923789,295.59146 72.163976,300.88159 C 64.7339,311.33584 63.29068,314.30578 62.529283,320.70838 C 62.137744,324.00084 62.406557,325.13683 63.764412,325.92797 C 64.960735,326.62499 55.479598,326.94863 33.25,326.96959 L 1,327 L 1,305.47525 z M 115.31514,282.9029 C 115.81188,281.00338 115.35852,277.52693 113.04569,265.5 C 112.39426,262.11251 109.13554,251.17973 107.23334,246 C 106.93037,245.175 106.75071,244.17213 106.83411,243.7714 C 106.9175,243.37067 106.35393,240.61714 105.58172,237.65245 C 103.83873,230.96065 103.98269,215.93025 105.81087,213.72769 C 106.53185,212.85907 107.02338,211.55249 106.90315,210.82419 C 106.78293,210.09588 107.02868,208.7125 107.44927,207.75 C 107.86986,206.7875 107.86939,205.2125 107.44823,204.25 C 107.02707,203.2875 106.73954,202.20566 106.80927,201.84591 C 107.04667,200.62121 104.10191,198.83371 102.39668,199.16742 C 101.46201,199.35034 100.52636,200.62296 100.31745,201.99547 C 99.907968,204.68579 97.425647,207.75898 96.450073,206.78341 C 96.121423,206.45476 96.560709,204.81639 97.426264,203.14259 C 99.550927,199.03394 99.431058,197.72841 97,198.5 C 95.467957,198.98625 95,198.6797 95,197.18983 C 95,196.12011 94.316559,194.67768 93.481242,193.98443 C 92.240993,192.95512 91.617372,193.0363 90.08052,194.42713 C 87.132358,197.09518 86.619474,194.51364 89.483697,191.42309 C 92.818442,187.82484 92.656804,186.38136 88.833512,185.6167 C 84.985021,184.847 79.240328,180.62157 77.827926,177.52168 C 76.986934,175.67591 75.953183,175.23263 72.319579,175.1597 C 69.859394,175.11032 66.458001,174.37723 64.760927,173.53062 C 63.063854,172.68401 61.537831,172.12884 61.369766,172.2969 C 61.201701,172.46497 60.759561,175.27942 60.387233,178.55124 C 60.014904,181.82306 59.237535,185.625 58.659746,187 C 58.081956,188.375 57.550186,189.95 57.478036,190.5 C 57.314384,191.74751 53.698592,199.32175 52.942929,200 C 52.63654,200.275 51.373849,203.62368 50.13695,207.44152 C 47.731417,214.86649 47.308453,227.97771 49.202612,236.40459 C 49.708914,238.65706 50.252372,243.425 50.410296,247 C 51.006758,260.50245 53.107311,262.59781 65.006179,261.55986 L 72.726624,260.8864 L 75.416237,264.08282 C 76.895523,265.84085 78.365156,268.57578 78.682086,270.16043 C 78.999017,271.74508 79.650201,273.28381 80.129162,273.57983 C 80.608123,273.87584 81,274.9811 81,276.03596 C 81,278.73378 84.801367,280.91039 90.574101,281.51794 C 93.283346,281.80308 96.625,282.32356 98,282.67457 C 99.375,283.02557 101.10373,283.43362 101.84163,283.58135 C 102.57953,283.72907 103.44203,284.1087 103.7583,284.42496 C 104.07457,284.74123 106.68085,285 109.55004,285 C 114.00624,285 114.84668,284.69428 115.31514,282.9029 z M 71.657991,256.32466 C 70.320192,254.98686 71.10121,254.28784 75.25,253.10975 C 83.629881,250.73021 88.254476,247.76175 89.829895,243.75113 C 91.478035,239.55537 93.000633,238.8341 92.998779,242.25 C 92.996555,246.34686 84.572477,254 80.065141,254 C 78.599314,254 76.86,254.54 76.2,255.2 C 75.54,255.86 75,256.0299 75,255.57756 C 75,255.12521 74.396096,255.25631 73.657991,255.86888 C 72.919886,256.48145 72.019886,256.68655 71.657991,256.32466 z M 94.70029,216.36696 C 94.352116,216.01878 95.852116,214.44096 98.033623,212.86068 C 100.21513,211.28041 102.03443,209.42778 102.07651,208.74373 C 102.42115,203.14142 104,201.4123 104,206.63717 C 104,209.81564 103.3422,211.24523 100.70239,213.80383 C 97.44689,216.95919 95.937213,217.60388 94.70029,216.36696 z M 210.25,245.33772 C 209.5625,245.06031 208.4375,245.06031 207.75,245.33772 C 207.0625,245.61513 207.625,245.84211 209,245.84211 C 210.375,245.84211 210.9375,245.61513 210.25,245.33772 z M 198.1875,244.31689 C 197.46562,244.02802 196.60313,244.06354 196.27083,244.39583 C 195.93854,244.72813 196.52917,244.96447 197.58333,244.92105 C 198.74828,244.87307 198.98523,244.63611 198.1875,244.31689 z M 48.606102,203.5 C 49.811301,199.64946 49.735146,199.53619 46.945023,201.02942 C 45.293349,201.91337 44.991528,203.60722 45.92569,206.75 C 46.309304,208.04058 47.720468,206.32955 48.606102,203.5 z M 37.357544,76.853309 C 37.710895,73.472629 38,68.359049 38,65.489799 C 38,55.248855 41.703715,41.174953 49.510649,21.75 C 50.848053,18.422314 46.816246,19.866262 42.887294,24.122083 C 38.7203,28.635749 35.507723,36.91984 34.40302,46 C 34.034995,49.025 33.340685,51.999813 32.860109,52.610696 C 31.930533,53.792324 32.249458,59.582792 33.302092,60.635425 C 33.647239,60.980573 33.464238,62.132564 32.895422,63.195405 C 32.229586,64.439533 32.20378,65.550311 32.822973,66.313922 C 33.601096,67.273531 34.681221,75.114074 34.94947,81.75 C 34.977262,82.4375 35.385895,83 35.857544,83 C 36.329193,83 37.004193,80.233989 37.357544,76.853309 z M 28.517945,77.25 C 27.043826,73.543699 25.957379,62.262561 26.586316,57.192918 C 27.302868,51.417047 29.824829,42.417502 29.933104,45.25 C 30.012434,47.325278 32,47.644332 32,45.581787 C 32,44.801771 32.309254,43.339271 32.687231,42.331787 C 33.292193,40.719285 33.172482,40.664297 31.687231,41.872445 C 29.141209,43.943456 29.630431,41.998104 33.568395,34.392152 C 37.885815,26.0533 46.363946,17 49.855597,17 C 52.050991,17 54.887981,14.641668 54.968197,12.75 C 54.985688,12.3375 52.759106,12 50.020236,12 C 44.963104,12 37.78967,14.211622 34.921259,16.655124 C 34.052952,17.394806 32.602008,18 31.696939,18 C 30.791871,18 29.353248,19.35 28.5,21 C 27.646752,22.65 26.596282,24 26.165623,24 C 25.734964,24 23.858949,27.2625 21.996701,31.25 C 18.878746,37.926254 18.586875,39.388601 18.308539,49.728591 C 18.034377,59.913539 18.239444,61.484398 20.514859,66.629515 C 23.742284,73.927297 26.888996,79 28.188548,79 C 28.763636,79 28.908299,78.231447 28.517945,77.25 z M 31.845793,72.987487 C 31.268201,71.330605 31.046957,69.320016 31.354139,68.519512 C 31.661321,67.719008 31.474688,66.793374 30.939399,66.462547 C 30.391121,66.123692 30.102498,62.181857 30.27841,57.435185 C 30.45921,52.556626 30.218601,49.381399 29.706893,49.893107 C 28.603601,50.996399 28.342105,67.194601 29.345975,72.25 C 29.78226,74.447093 30.671483,76 31.493294,76 C 32.618842,76 32.688484,75.404831 31.845793,72.987487 z M 81.542134,37.931826 C 81.905226,37.344331 82.835691,37.106707 83.609835,37.403774 C 87.750345,38.992637 93,32.753608 93,26.243896 C 93,11.16936 77.628904,1.8261401 64.25,8.7683966 C 60.295379,10.820433 60.247632,11.278581 63.75,13.566105 C 67.800671,16.211745 71.859344,20.499847 72.897685,23.230891 C 73.39939,24.550475 74.138533,28.300854 74.540226,31.565067 C 74.941918,34.82928 75.772196,37.830609 76.385288,38.234687 C 78.028161,39.317476 80.785851,39.155518 81.542134,37.931826 z M 149.64251,238.75 C 148.3608,235.8625 146.71978,231.925 145.99579,230 C 145.2718,228.075 144.30157,226.0725 143.83972,225.55 C 142.72239,224.28593 142.76009,216.26631 143.88664,215.57006 C 144.37429,215.26868 145.08494,213.36075 145.46587,211.33023 C 145.90482,208.99044 146.44176,208.09675 146.93201,208.88999 C 147.35746,209.57838 147.35369,212.02225 146.92363,214.32081 C 145.76276,220.52534 146.88252,226.65076 150.64065,234.654 C 154.18642,242.205 154.63696,244 152.98644,244 C 152.42899,244 150.92422,241.6375 149.64251,238.75 z M 152.42857,227.03206 C 152.42857,225.91443 152.78214,225 153.21429,225 C 154.27604,225 154.21846,208.72273 153.14643,205.8151 C 151.24486,200.6576 150.87963,197.79321 152.1788,198.22627 C 152.87512,198.45837 153.69466,199.70655 154,201 C 154.90817,204.84708 157.2338,204.80322 156.83715,200.94649 C 156.63912,199.02091 156.99328,197.50347 157.69548,197.26895 C 159.23496,196.75479 159.82026,205.80894 158.64776,212 C 158.17903,214.475 157.67901,217.175 157.5366,218 C 157.3942,218.825 156.92242,220.3387 156.48819,221.36378 C 156.05397,222.38886 155.65399,224.40811 155.59935,225.85099 C 155.48031,228.99441 152.42857,230.13113 152.42857,227.03206 z M 173.67227,213.25 C 173.4271,212.8375 172.90371,208.7875 172.50917,204.25 C 172.00617,198.46504 172.12173,196 172.89592,196 C 173.50316,196 174.031,196.5625 174.0689,197.25 C 174.28268,201.12853 175.81601,210.35696 176.57551,212.33618 C 177.00152,213.44635 176.69888,214 175.66601,214 C 174.81462,214 173.91744,213.6625 173.67227,213.25 z M 202.8785,203.36043 C 200.09008,200.16114 198.88774,197.06512 198.52106,192.14004 C 198.32621,189.52286 197.43916,184.87858 196.54983,181.8194 C 194.68426,175.40205 188.82626,168.7342 179.77676,162.72749 C 170.90675,156.83991 162.03142,145.33468 164.96231,143.52329 C 165.42589,143.23679 166.26286,144.31529 166.82226,145.91997 C 168.14519,149.71494 177.4825,159.07309 182.13901,161.27092 C 187.61899,163.85742 194.69106,171.05801 197.17791,176.58313 C 199.87988,182.58619 199.98085,182.96423 200.95505,190.72441 C 201.38482,194.14784 202.4986,198.11202 203.43013,199.53371 C 204.36165,200.95539 204.98345,202.8166 204.8119,203.66972 C 204.54669,204.98868 204.25729,204.94238 202.8785,203.36043 z M 235.77011,153.2295 C 235.36553,151.41273 232.92116,147.69172 230.2709,144.8582 C 226.98566,141.34578 226.08856,139.87301 227.39004,140.12869 C 228.42956,140.33291 231.04922,142.58855 233.21151,145.14122 C 236.38362,148.88603 237.0807,150.43117 236.82068,153.14122 L 236.49842,156.5 L 235.77011,153.2295 z M 171.42363,134.25 C 171.05678,132.1875 169.91139,129.09688 168.87832,127.38197 C 167.84524,125.66705 167,123.52955 167,122.63197 C 167,121.73438 166.55,121 166,121 C 165.45,121 165,120.42058 165,119.71241 C 165,116.88668 151.29636,105.4551 145,103.0284 C 143.075,102.28647 141.05,101.24699 140.5,100.71843 C 138.96628,99.244506 147.14563,100.90108 149.5,102.54122 C 157.83059,108.34459 160.69379,110.53995 163.1979,113.04406 C 167.82006,117.66621 175.97629,135.69038 174.23411,137.43256 C 172.91487,138.75179 172.05018,137.77262 171.42363,134.25 z M 232.63495,124.92473 C 231.9796,121.64802 219.10782,108 216.67282,108 C 215.99723,108 214.75628,107.19624 213.91514,106.21386 C 213.07401,105.23149 210.28625,103.09945 207.72012,101.47599 C 204.5696,99.482827 201.58859,96.247077 198.54068,91.512127 C 193.44899,83.602159 193.09481,82.798338 194.5,82.341706 C 195.05,82.162977 196.472,83.719267 197.66001,85.800127 C 201.13855,91.893004 208.67704,99.652598 215.83982,104.51316 C 227.37626,112.34164 235.72406,121.1848 235.56981,125.41391 C 235.45239,128.63307 233.30503,128.27515 232.63495,124.92473 z M 141.38955,115.36448 C 139.2503,113.91495 135.7,110.87745 133.5,108.61448 C 131.3,106.35152 128.6,103.96079 127.5,103.30176 C 126.06518,102.44213 125.83548,101.87125 126.68717,101.28157 C 127.34012,100.8295 127.67618,99.343711 127.43397,97.979813 C 125.9923,89.861427 125.89846,88.180791 126.85386,87.590322 C 127.4799,87.203403 128.13748,88.459176 128.49385,90.72221 C 130.21091,101.62611 134.0005,106.9325 143.5,111.73469 C 148.25818,114.14005 149.95058,115.57945 149.98469,117.25 C 150.01894,118.92768 145.03444,117.83423 141.38955,115.36448 z M 234,94.336269 C 230.27432,90.546738 225.808,89 218.59114,89 C 211.85433,89 209.00608,87.538547 213.53001,86.403112 C 215.96093,85.79299 220.26005,86.14506 227.48778,87.546165 C 231.52277,88.328352 237,92.649651 237,95.050891 C 237,97.437412 237.06384,97.45262 234,94.336269 z M 234.57503,52.855111 C 232.58221,50.934606 228.8914,50.468297 219,50.887316 C 214.66561,51.070929 213.75737,50.860787 214.71441,49.895744 C 215.46097,49.142938 218.92818,48.662545 223.71441,48.648764 C 233.42518,48.620803 236.41044,49.239801 236.82699,51.367674 C 237.38956,54.241481 236.57315,54.780722 234.57503,52.855111 z M 196.5,51 C 196.16008,50.45 196.47102,49.96557 197.19098,49.923489 C 197.91094,49.881408 199.175,49.664478 200,49.441424 C 205.04987,48.076094 207,47.876543 207,48.725135 C 207,49.252194 205.26029,50.204654 203.13398,50.841712 C 198.40307,52.259126 197.29453,52.285576 196.5,51 z M 184,47.5 C 184,46.675 184.64844,46 185.44098,46 C 187.55659,46 188.24315,47.692718 186.41247,48.395215 C 184.18368,49.250481 184,49.18232 184,47.5 z "
     id="path2161" />
</svg>
