<?xml version="1.0" encoding="UTF-8" standalone="no"?>
<svg
   version="1.0"
   width="941.000000pt"
   height="1280.000000pt"
   viewBox="0 0 941.000000 1280.000000"
   preserveAspectRatio="xMidYMid meet"
   id="svg66"
   sodipodi:docname="picasso_problem_on_face.svg"
   inkscape:version="1.2 (dc2aedaf03, 2022-05-15)"
   xmlns:inkscape="http://www.inkscape.org/namespaces/inkscape"
   xmlns:sodipodi="http://sodipodi.sourceforge.net/DTD/sodipodi-0.dtd"
   xmlns="http://www.w3.org/2000/svg"
   xmlns:svg="http://www.w3.org/2000/svg">
  <defs
     id="defs70" />
  <sodipodi:namedview
     id="namedview68"
     pagecolor="#ffffff"
     bordercolor="#000000"
     borderopacity="0.25"
     inkscape:showpageshadow="2"
     inkscape:pageopacity="0.0"
     inkscape:pagecheckerboard="0"
     inkscape:deskcolor="#d1d1d1"
     inkscape:document-units="pt"
     showgrid="false"
     inkscape:zoom="1.2035156"
     inkscape:cx="529.69815"
     inkscape:cy="872.44401"
     inkscape:window-width="3840"
     inkscape:window-height="2126"
     inkscape:window-x="-11"
     inkscape:window-y="-11"
     inkscape:window-maximized="1"
     inkscape:current-layer="g64" />
  <metadata
     id="metadata2">
Created by potrace 1.15, written by Peter Selinger 2001-2017
</metadata>
  <g
     transform="translate(0.000000,1280.000000) scale(0.100000,-0.100000)"
     fill="#000000"
     stroke="none"
     id="g64">
    <path
       d="M4270 12791 c-30 -5 -91 -24 -135 -42 -76 -32 -87 -34 -245 -39 -194 -8 -203 -10 -475 -136 -190 -87 -301 -124 -373 -124 -39 0 -68 -17 -335 -197 -617 -416 -775 -528 -1172 -837 -509 -395 -672 -556 -808 -799 -104 -186 -157 -362 -206 -687 -57 -373 -78 -609 -87 -975 -7 -271 0 -373 45 -602 18 -90 39 -251 51 -390 41 -480 97 -805 184 -1084 l14 -46 -96 5 c-169 7 -316 -39 -390 -123 -29 -33 -46 -67 -70 -147 -36 -115 -80 -324 -111 -528 -87 -572 -79 -856 32 -1190 44 -134 549 -1130 630 -1242 63 -88 174 -192 221 -208 55 -18 108 -9 220 39 55 23 110 41 125 39 23 -3 26 -8 29 -48 10 -188 60 -467 118 -657 119 -393 296 -709 698 -1248 140 -188 194 -253 218 -263 18 -8 53 -31 79 -53 26 -21 52 -39 58 -39 7 0 18 -15 26 -33 7 -17 27 -49 44 -71 17 -21 31 -45 31 -52 0 -7 15 -21 32 -30 63 -32 155 -115 277 -250 138 -153 157 -168 330 -265 131 -75 181 -109 326 -225 128 -102 150 -111 353 -145 160 -26 179 -31 195 -54 22 -29 45 -31 190 -13 82 10 138 9 350 -6 531 -38 824 -32 911 19 40 23 53 26 139 23 90 -2 98 0 160 31 87 44 167 113 314 269 109 116 131 134 210 175 99 51 170 118 288 272 184 241 206 265 340 366 142 106 157 122 262 279 74 110 130 172 175 196 19 10 32 30 47 76 24 72 113 254 230 472 126 233 182 376 213 538 8 43 17 68 26 68 7 0 25 6 40 14 26 13 29 22 45 128 28 172 69 325 176 648 94 284 98 295 122 292 13 -2 65 -4 114 -5 80 -2 96 1 145 25 79 39 122 78 205 186 68 88 72 97 63 124 -14 40 -4 94 32 170 34 71 36 91 16 139 -17 42 -13 52 34 109 54 66 60 82 60 155 0 77 3 83 87 193 71 94 77 110 71 190 -7 74 5 107 97 267 109 191 119 222 118 380 0 115 -5 151 -40 304 l-40 173 40 -6 c23 -4 47 -12 54 -18 10 -8 13 -7 13 3 0 26 -18 41 -51 44 -33 2 -36 6 -128 184 -56 109 -111 201 -136 229 l-43 47 -128 5 c-78 3 -138 11 -152 19 -26 14 -27 8 6 136 26 97 30 146 42 440 10 239 17 289 86 615 44 212 52 372 20 453 -10 27 -16 50 -13 53 2 2 17 0 32 -6 49 -18 61 -7 60 57 0 46 8 75 38 141 51 111 63 187 47 322 -11 105 -19 130 -143 486 -26 72 -92 291 -147 485 -123 434 -154 529 -192 596 -16 29 -82 105 -150 172 -114 114 -120 122 -114 152 8 42 -16 79 -105 164 -164 154 -399 264 -596 279 -35 2 -63 1 -63 -3 0 -5 9 -16 21 -27 27 -24 52 -72 44 -84 -11 -19 -26 -10 -40 23 -7 18 -23 41 -34 51 -24 21 -29 11 -7 -13 26 -29 83 -154 136 -298 29 -79 57 -143 61 -143 4 0 11 9 14 20 9 29 51 37 76 14 l21 -19 -7 73 c-9 88 4 100 62 53 64 -51 127 -73 210 -74 l73 0 25 -43 c13 -23 26 -57 27 -75 3 -29 0 -34 -21 -37 -13 -2 -42 4 -64 14 -38 18 -40 17 -53 -1 -8 -10 -14 -28 -14 -40 0 -36 -22 -52 -110 -80 -270 -85 -479 -249 -609 -477 l-32 -57 33 -68 c32 -65 140 -187 210 -238 26 -19 27 -21 14 -57 l-13 -37 56 -35 c101 -62 188 -172 256 -321 38 -82 43 -85 169 -85 90 0 135 13 321 87 155 62 218 81 295 85 39 2 46 -1 57 -22 7 -14 13 -44 13 -67 0 -41 -1 -42 -42 -53 -24 -6 -49 -13 -56 -15 -7 -3 -92 -13 -190 -25 -198 -22 -243 -34 -319 -86 -61 -42 -63 -50 -33 -146 23 -76 82 -170 143 -232 33 -33 45 -54 50 -85 3 -22 27 -87 53 -143 46 -99 48 -106 47 -188 0 -59 -12 -136 -38 -250 -40 -179 -48 -288 -26 -354 15 -43 18 -38 -51 -87 -21 -15 -22 -17 -8 -87 14 -78 10 -102 -35 -211 l-27 -64 17 -78 c15 -70 15 -82 1 -137 -22 -83 -21 -90 19 -106 34 -14 54 -40 42 -53 -4 -3 -20 0 -37 7 -17 7 -33 10 -36 7 -3 -3 11 -117 30 -254 47 -323 66 -492 66 -576 0 -79 10 -88 74 -66 62 22 78 58 85 198 5 101 9 120 28 140 27 29 40 59 67 163 27 105 43 116 188 129 118 10 195 3 222 -20 63 -54 176 -258 220 -396 48 -151 59 -221 59 -390 1 -223 -19 -291 -215 -720 -214 -467 -246 -560 -278 -813 -11 -84 -24 -172 -31 -195 -26 -101 -101 -180 -182 -192 -58 -9 -142 24 -191 74 l-39 40 7 74 c12 136 6 439 -14 717 -11 151 -20 335 -20 408 0 72 -4 132 -8 132 -5 0 -18 -17 -30 -39 -27 -47 -29 -150 -7 -251 17 -78 20 -523 5 -720 -27 -342 -89 -664 -177 -908 -19 -53 -33 -76 -51 -85 -32 -15 -40 -38 -153 -452 -103 -376 -157 -543 -224 -700 -77 -179 -117 -244 -354 -560 -219 -293 -233 -310 -692 -810 -481 -525 -637 -651 -932 -749 -249 -84 -516 -119 -897 -119 -291 0 -484 15 -685 53 -262 51 -312 83 -911 572 -620 506 -911 804 -1242 1270 -207 292 -308 516 -421 933 -131 481 -251 1389 -251 1896 0 131 -2 148 -19 163 -27 24 -39 88 -46 240 -7 157 -25 209 -79 231 -20 8 -38 15 -42 15 -16 0 22 -495 76 -985 43 -383 65 -608 75 -758 l7 -97 -74 -35 c-147 -70 -251 -44 -359 92 -151 190 -478 773 -587 1048 -153 386 -169 794 -56 1462 43 257 81 429 102 461 23 35 138 128 187 152 27 13 62 20 99 20 172 0 243 -81 336 -380 45 -143 85 -241 120 -290 17 -24 29 -30 59 -30 50 0 95 16 153 55 35 23 44 34 38 45 -14 22 -11 116 5 190 8 36 14 84 15 108 0 37 -4 44 -27 54 -16 7 -29 13 -31 13 -1 1 5 19 13 39 14 34 14 42 -3 98 l-19 62 37 56 c45 65 79 180 117 393 7 39 -18 35 -51 -8 -45 -58 -93 -39 -56 22 10 17 39 59 64 93 25 34 53 87 62 116 29 100 3 144 -44 74 -58 -87 -57 -20 2 80 48 83 63 120 47 120 -20 0 -41 33 -41 65 0 21 -9 44 -25 64 l-26 30 36 49 c49 69 62 105 69 202 9 107 34 213 90 388 65 197 86 292 93 422 6 112 7 117 48 190 52 93 67 138 64 190 -3 30 2 45 21 66 51 54 153 117 366 223 120 60 248 128 283 151 63 41 171 140 171 158 0 4 -27 21 -60 36 -76 35 -90 58 -61 97 l22 29 -43 20 c-24 11 -75 29 -114 40 -91 26 -134 55 -153 104 -12 32 -12 39 0 47 38 24 176 -4 250 -52 25 -16 93 -78 150 -138 145 -151 196 -173 294 -130 45 20 50 20 82 5 33 -15 33 -15 33 8 0 40 20 48 76 31 27 -8 55 -15 62 -15 22 0 24 28 3 49 -22 22 -26 47 -12 70 7 11 24 5 88 -32 160 -94 283 -135 359 -121 32 6 35 8 21 19 -18 13 -23 35 -8 35 5 0 22 -7 37 -15 35 -18 60 -19 134 -3 48 10 61 9 90 -5 18 -10 35 -15 37 -13 7 6 -16 46 -27 46 -10 0 -40 28 -40 38 0 4 4 13 9 20 6 11 21 5 67 -24 69 -44 140 -73 207 -84 l48 -7 -3 41 c-3 40 -5 42 -68 73 -64 31 -90 55 -90 80 0 7 5 13 11 13 21 0 138 -63 193 -105 56 -42 57 -42 129 -37 57 3 83 0 125 -17 60 -24 90 -26 126 -10 23 11 30 8 67 -26 52 -47 96 -65 155 -65 l47 0 -7 63 c-15 148 -81 306 -176 424 -70 87 -169 168 -350 288 -147 98 -159 108 -229 199 -66 86 -194 216 -213 216 -23 0 4 -83 36 -109 24 -20 19 -38 -13 -52 l-29 -13 74 -70 c41 -39 74 -79 74 -88 0 -10 -9 -27 -20 -38 l-21 -21 -97 100 c-62 64 -113 107 -142 120 -99 45 -88 24 61 -121 151 -147 218 -235 259 -337 18 -47 18 -51 2 -42 -24 13 -60 54 -127 144 l-59 79 -14 -27 c-13 -26 -14 -26 -33 -9 -11 10 -26 42 -35 71 -22 74 -49 102 -179 183 -62 39 -133 90 -157 114 l-43 44 -90 4 c-57 3 -114 13 -155 28 -66 23 -300 139 -300 149 0 4 55 6 123 6 144 0 214 18 278 73 l41 36 48 -27 c62 -35 76 -34 84 3 3 17 12 30 19 30 7 0 26 -13 42 -30 34 -36 49 -37 135 -8 58 19 96 22 360 29 373 9 555 35 1100 159 l125 29 155 -74 c130 -63 223 -95 272 -95 5 0 -7 15 -26 34 -33 31 -49 76 -27 76 6 0 31 -11 57 -25 64 -34 74 -32 74 10 0 39 28 75 59 75 10 0 58 -19 107 -42 76 -36 99 -42 159 -43 l71 -1 69 -74 68 -73 -27 -14 c-16 -9 -24 -19 -19 -26 4 -7 31 -46 59 -89 83 -121 144 -261 144 -330 0 -43 -25 -24 -56 39 -26 55 -26 55 -64 50 l-39 -5 -28 67 c-33 79 -114 203 -145 223 -56 36 -58 24 -5 -31 48 -50 57 -65 57 -95 0 -20 -4 -36 -10 -36 -5 0 -10 4 -10 9 0 24 -199 116 -216 99 -3 -3 18 -28 45 -54 51 -49 185 -257 174 -268 -4 -3 -19 -6 -34 -6 -37 0 -44 -14 -15 -33 46 -30 68 -117 30 -117 -25 0 -87 64 -170 177 -72 97 -107 133 -128 133 -3 0 4 -15 15 -34 10 -18 17 -41 13 -50 -9 -23 -21 -20 -28 9 -9 35 -49 34 -65 -1 -13 -30 0 -58 51 -106 27 -26 37 -48 19 -48 -13 0 -112 91 -251 231 -169 170 -291 246 -381 237 l-32 -3 113 -120 c101 -108 150 -175 150 -205 0 -18 -36 7 -113 77 -73 67 -109 88 -136 78 -12 -5 -8 -11 17 -27 35 -22 53 -65 32 -78 -19 -11 -246 83 -358 149 -29 17 -52 28 -52 25 0 -24 43 -73 105 -120 45 -34 78 -66 81 -81 13 -50 -14 -42 -101 31 -37 32 -49 37 -66 29 -20 -8 -20 -10 15 -36 44 -34 49 -62 9 -52 -53 13 -133 67 -228 153 -169 154 -225 200 -268 220 -23 11 -44 19 -45 17 -7 -6 54 -88 125 -171 130 -150 183 -248 183 -339 0 -38 -3 -43 -17 -38 -37 12 -85 56 -154 139 -80 96 -118 124 -168 124 -39 0 -38 -5 12 -89 48 -80 144 -179 309 -318 81 -69 173 -155 203 -191 70 -84 129 -199 150 -295 l17 -75 66 -30 c140 -64 210 -65 288 -6 l45 35 38 -34 c61 -55 114 -70 223 -65 94 5 203 35 220 60 12 20 9 107 -7 173 -17 68 -19 153 -5 175 7 12 13 11 35 -10 32 -30 50 -93 70 -247 20 -153 29 -183 61 -183 13 0 39 14 59 32 27 23 45 31 71 30 19 -1 34 2 34 6 0 32 24 140 35 162 17 32 45 46 57 28 4 -7 8 -41 8 -75 0 -64 6 -93 20 -93 5 0 12 9 15 21 6 19 12 20 68 14 34 -3 67 -2 73 2 6 4 19 44 27 87 16 78 37 123 37 79 0 -35 19 -78 31 -66 5 5 16 47 24 93 16 93 35 130 66 130 19 0 21 -4 15 -37 -4 -21 -18 -70 -32 -110 -30 -89 -34 -193 -6 -193 37 1 101 40 143 89 65 76 139 117 139 76 0 -19 43 -40 64 -32 10 4 16 23 18 54 4 57 30 72 50 28 9 -21 18 -25 41 -23 24 2 32 10 41 38 11 34 12 34 72 36 122 3 196 65 343 286 50 75 108 151 129 167 l37 31 -81 163 c-84 168 -154 273 -197 296 -46 25 -60 -6 -32 -72 18 -45 19 -67 2 -67 -7 0 -28 36 -46 81 -36 88 -55 104 -81 71 -18 -21 -18 -21 -34 29 -10 28 -28 68 -41 88 -24 39 -84 95 -92 87 -2 -2 14 -62 37 -133 43 -134 59 -246 45 -319 l-7 -39 -23 51 c-24 54 -56 82 -124 110 -39 15 -46 24 -76 90 -43 95 -89 161 -128 185 -34 20 -77 25 -77 9 0 -26 37 -94 116 -212 46 -70 93 -146 103 -170 24 -54 35 -136 23 -168 -8 -23 -12 -19 -53 55 -53 97 -147 224 -191 257 -32 24 -92 58 -102 58 -3 0 14 -30 39 -66 46 -67 55 -94 32 -94 -20 0 -41 28 -65 83 -21 48 -42 62 -42 27 0 -10 8 -35 17 -55 14 -29 14 -38 4 -48 -10 -10 -18 -5 -39 23 -49 64 -146 162 -252 253 -122 105 -280 258 -280 271 0 15 138 -4 244 -35 101 -29 182 -38 225 -24 20 6 8 14 -77 55 -54 26 -134 71 -176 99 -93 63 -256 218 -317 301 -53 73 -121 190 -110 190 14 0 84 -56 126 -100 48 -50 87 -72 140 -79 36 -5 55 -21 180 -151 120 -125 145 -146 178 -152 55 -10 113 -40 204 -105 103 -74 164 -105 199 -101 27 3 26 4 -30 47 -31 25 -64 57 -72 72 -13 26 -12 29 5 39 30 15 47 13 111 -20 55 -28 90 -31 90 -8 0 5 -17 30 -39 54 -21 24 -55 75 -75 113 -36 68 -37 70 -88 81 -68 14 -98 34 -98 65 0 51 20 44 185 -64 92 -61 165 -99 165 -85 0 3 -13 22 -29 42 -17 20 -33 49 -36 64 -6 23 -3 27 24 33 17 4 35 14 40 22 13 25 28 8 45 -52 15 -49 44 -85 69 -85 14 0 -1 64 -28 122 -27 58 -31 89 -15 119 15 28 35 24 79 -16 46 -42 97 -136 144 -266 49 -134 91 -213 138 -259 23 -22 45 -40 50 -40 18 0 22 77 7 150 -42 206 -224 522 -408 710 -153 156 -328 208 -805 240 -93 7 -219 18 -280 26 l-110 14 -22 -27 -22 -27 -268 77 c-382 109 -522 142 -728 173 -118 17 -446 26 -525 15z m145 -206 c31 -13 97 -50 148 -81 50 -31 106 -63 123 -70 31 -13 32 -13 43 16 5 17 18 33 27 37 13 5 77 -11 132 -34 7 -3 10 1 6 10 -3 8 -46 41 -95 73 -50 32 -86 60 -81 62 6 2 54 -13 109 -34 229 -85 500 -262 724 -472 60 -57 72 -73 62 -83 -17 -17 -16 -44 2 -59 21 -17 8 -32 -16 -19 -50 26 -31 -29 35 -99 42 -46 76 -100 76 -122 0 -21 -104 45 -160 100 -30 30 -93 104 -139 163 -111 144 -181 210 -265 253 -38 19 -71 32 -74 29 -9 -9 51 -89 122 -165 104 -109 178 -212 163 -226 -8 -8 -125 75 -201 145 -81 74 -136 117 -136 106 0 -19 66 -103 150 -191 97 -101 142 -164 156 -217 l7 -29 -31 16 c-17 9 -64 51 -104 93 -152 162 -204 210 -251 232 -26 13 -50 21 -53 18 -19 -19 173 -282 219 -300 6 -3 0 -6 -14 -6 -55 -2 -118 56 -215 199 -79 116 -118 160 -271 308 -98 95 -168 168 -155 162 29 -14 28 -3 -7 51 -37 58 -65 83 -142 124 l-64 35 57 0 c40 0 75 -8 113 -25z m-190 -179 c56 -34 142 -54 184 -43 15 4 28 -8 54 -47 19 -29 70 -90 114 -137 215 -231 262 -293 289 -386 27 -93 15 -91 -75 9 -123 137 -253 269 -259 263 -12 -12 23 -61 87 -121 68 -64 105 -120 99 -149 -2 -11 -25 -4 -95 30 -188 89 -365 233 -528 429 -47 55 -85 104 -85 109 0 16 48 5 100 -23 30 -17 63 -30 72 -30 29 0 31 21 4 49 -15 15 -26 39 -26 54 0 15 2 27 4 27 2 0 29 -15 61 -34z m1324 -210 c15 -18 6 -37 -13 -30 -11 4 -36 45 -36 60 0 8 36 -14 49 -30z m1527 19 c27 -18 50 -73 37 -86 -16 -16 -41 1 -53 37 -6 19 -18 34 -26 34 -15 0 -19 12 -7 23 10 11 27 8 49 -8z m-3301 -16 c253 -31 413 -130 700 -434 128 -135 242 -242 305 -288 l25 -17 -35 6 c-90 15 -158 59 -374 241 -54 44 -127 97 -164 116 -70 36 -172 71 -172 59 0 -20 52 -76 107 -116 67 -49 87 -74 99 -121 6 -26 5 -28 -8 -18 -8 7 -64 31 -124 53 -59 22 -119 48 -132 56 -18 12 -27 13 -36 4 -8 -8 1 -22 38 -53 32 -29 47 -49 45 -61 -6 -31 -21 -28 -76 13 -29 21 -109 74 -179 117 -130 82 -245 178 -278 234 l-18 32 21 -12 c20 -10 21 -9 15 17 -4 15 -7 32 -8 38 0 5 28 13 63 18 57 8 66 7 93 -13 20 -15 33 -19 40 -12 6 6 -7 29 -41 66 -81 90 -74 95 94 75z m3025 -124 c0 -20 -5 -25 -25 -25 -20 0 -25 5 -25 25 0 20 5 25 25 25 20 0 25 -5 25 -25z m-979 -136 c53 -52 99 -134 99 -177 0 -28 -3 -26 -86 52 -91 86 -108 109 -120 170 l-7 39 34 -19 c18 -11 54 -40 80 -65z m-2247 -179 c74 -17 147 -40 171 -54 41 -25 43 -27 43 -75 0 -36 7 -63 26 -95 35 -60 34 -77 -3 -66 -46 13 -71 29 -138 92 -44 41 -68 57 -75 50 -16 -16 -1 -47 59 -114 51 -56 55 -63 36 -66 -30 -4 -69 18 -138 80 -75 68 -114 95 -147 103 -37 9 -45 -12 -14 -36 14 -11 26 -28 26 -37 0 -15 -13 -17 -102 -16 -78 0 -111 5 -136 18 -78 40 -43 -19 42 -73 72 -45 87 -61 58 -61 -62 0 -396 141 -390 164 2 6 14 44 27 83 l23 73 61 -6 c150 -12 166 -16 211 -45 26 -16 51 -29 56 -29 18 0 16 26 -3 61 -12 20 -18 43 -14 53 6 15 12 14 59 -10 29 -14 60 -33 70 -41 26 -23 34 4 9 31 -24 25 -26 37 -10 53 8 8 19 9 38 2 14 -6 84 -23 155 -39z m-886 -120 c98 -9 130 -22 159 -66 21 -33 7 -44 -63 -44 -66 0 -136 21 -203 62 -98 59 -80 67 107 48z m-49 -141 c32 -11 33 -13 16 -26 -20 -14 -275 -20 -275 -5 0 12 14 28 35 41 25 15 175 8 224 -10z m-196 -166 c12 -12 -15 -33 -43 -33 -16 0 -57 13 -92 30 -36 17 -79 30 -102 30 -33 0 -37 2 -26 15 10 12 36 15 114 15 55 0 108 5 116 10 12 7 16 2 21 -25 3 -20 9 -38 12 -42z m-443 -68 c0 -3 -7 -17 -17 -31 -23 -35 -78 -61 -159 -74 -160 -26 -192 -39 -237 -92 -58 -68 -96 -90 -148 -86 l-42 3 51 51 c60 58 179 131 267 164 115 42 285 81 285 65z m815 -189 c295 -100 398 -148 497 -235 43 -38 133 -159 125 -168 -2 -1 -60 23 -128 56 -131 62 -285 125 -333 137 -47 11 -24 -10 84 -82 61 -40 107 -78 120 -100 12 -19 20 -37 18 -39 -4 -4 -64 19 -240 95 -49 20 -68 25 -68 15 0 -20 54 -62 97 -75 62 -20 114 -53 129 -82 14 -27 19 -88 8 -88 -4 0 -33 25 -65 55 -107 99 -252 170 -586 291 -106 38 -193 72 -193 76 0 4 18 13 40 19 33 10 55 9 122 -4 85 -17 118 -21 152 -19 34 3 -1 29 -69 52 -62 21 -115 53 -115 70 0 18 42 21 101 6 93 -24 101 -23 93 19 -6 36 -1 65 13 65 5 0 94 -29 198 -64z m-1350 -177 c30 -11 55 -23 55 -27 0 -4 -41 -38 -92 -75 -89 -67 -216 -138 -270 -151 l-27 -6 20 35 c26 44 72 83 127 107 23 10 42 23 42 28 0 14 -30 40 -46 40 -12 0 -13 4 -3 23 7 12 19 27 28 34 25 19 104 15 166 -8z m872 -94 c363 -120 523 -232 612 -425 40 -88 46 -110 29 -110 -19 0 -52 24 -133 95 -72 64 -131 105 -152 105 -8 0 -8 -10 2 -37 7 -21 19 -65 25 -98 10 -45 21 -68 47 -94 26 -26 31 -36 21 -43 -25 -17 -68 2 -133 57 -36 30 -69 55 -73 55 -212 2 -246 6 -372 52 -69 25 -143 49 -165 53 l-40 7 25 20 c22 18 34 19 105 14 73 -6 78 -5 55 8 -15 8 -65 26 -114 39 -48 14 -90 27 -93 31 -10 9 26 56 59 76 85 52 297 45 413 -13 l40 -20 -18 21 c-30 33 -145 89 -242 117 -102 30 -268 55 -367 55 -74 0 -85 11 -47 46 19 17 35 19 138 16 107 -3 118 -2 135 17 11 12 25 21 33 21 7 0 102 -29 210 -65z m2411 -54 c45 -33 50 -40 37 -51 -8 -7 -25 -9 -37 -6 -30 8 -100 74 -93 86 12 19 42 10 93 -29z m-666 -118 c19 -16 61 -59 95 -98 33 -38 69 -78 79 -87 22 -20 86 -48 108 -48 23 0 0 55 -30 75 -43 28 -64 54 -64 80 0 31 4 31 66 -5 49 -28 114 -106 114 -136 0 -7 -15 -14 -32 -16 -42 -4 -50 -36 -17 -67 l23 -21 -35 0 c-57 0 -129 41 -194 112 -59 63 -173 238 -156 238 4 0 24 -12 43 -27z m912 -24 c19 -32 21 -69 3 -92 -11 -16 -14 -16 -35 -2 -19 14 -22 25 -22 81 0 60 1 63 19 52 10 -6 26 -24 35 -39z m3168 -1 c81 -46 85 -110 13 -177 -79 -73 -202 -121 -310 -121 -61 0 -125 15 -125 29 0 22 340 291 369 291 7 0 31 -10 53 -22z m-6737 -39 c80 -12 91 -23 57 -57 -12 -12 -41 -21 -76 -26 -72 -8 -79 -12 -191 -97 -50 -37 -107 -75 -128 -84 -35 -14 -38 -14 -44 2 -13 32 -8 127 7 157 49 94 186 133 375 105z m2261 -78 c31 -38 67 -75 81 -82 39 -21 21 -34 -46 -34 l-63 0 -23 62 c-12 34 -30 74 -39 87 -21 33 -20 36 9 36 19 0 39 -17 81 -69z m2436 35 c6 -11 17 -45 24 -73 l12 -53 -49 0 c-45 0 -49 2 -40 18 7 13 6 34 -5 68 -8 27 -12 54 -10 60 7 18 55 4 68 -20z m2198 -141 c0 -22 73 -98 115 -121 19 -10 35 -21 35 -24 0 -12 -70 -39 -127 -49 -32 -5 -115 -12 -185 -16 -148 -7 -215 -24 -262 -66 -33 -28 -35 -29 -41 -10 -13 43 57 104 144 127 40 10 49 17 71 59 14 27 37 57 52 68 54 40 198 63 198 32z m-6478 -17 c40 -16 57 -28 55 -38 -2 -11 -14 -14 -49 -12 -35 3 -48 -1 -56 -13 -8 -15 -11 -14 -30 10 -27 34 -28 51 -4 64 22 14 18 14 84 -11z m3429 -57 c24 -25 29 -38 29 -78 0 -26 -4 -54 -9 -62 -12 -19 -36 19 -67 104 -24 65 -24 65 -3 65 11 0 34 -13 50 -29z m359 3 c0 -22 -4 -25 -27 -22 -18 2 -27 10 -29 26 -3 19 1 22 26 22 26 0 30 -4 30 -26z m-4164 -169 c31 -13 34 -17 24 -34 -5 -11 -18 -25 -28 -30 -13 -8 -1 -10 46 -11 60 0 122 -20 122 -39 0 -5 -26 -14 -58 -20 -94 -18 -154 -54 -235 -142 l-73 -79 -21 27 -20 27 -57 -19 c-57 -20 -58 -20 -72 0 -16 22 -18 78 -4 105 18 34 -8 32 -61 -4 -41 -29 -55 -34 -70 -26 -23 13 -23 15 -1 52 17 30 140 128 160 128 6 0 24 -8 41 -17 28 -16 33 -16 41 -3 16 25 35 -2 20 -30 -16 -30 -10 -33 39 -15 64 22 101 53 123 102 21 47 31 50 84 28z m7010 -39 c68 -31 82 -61 60 -121 -22 -55 -20 -91 4 -108 19 -13 19 -15 3 -29 -33 -27 -72 -37 -179 -48 -59 -6 -122 -17 -141 -25 -45 -19 -41 3 5 25 35 17 40 31 17 50 -13 11 -29 11 -85 0 -39 -7 -73 -10 -76 -7 -10 10 114 129 179 172 45 30 55 41 46 51 -17 20 -52 17 -77 -6 l-22 -21 0 24 c0 26 22 50 60 66 39 17 145 5 206 -23z m-6866 -141 c0 -3 -7 -21 -15 -41 -16 -38 -62 -64 -115 -64 -63 0 -22 62 60 90 59 21 70 23 70 15z m330 -95 c13 -8 12 -13 -6 -37 -18 -24 -29 -28 -68 -27 l-46 0 25 -43 c17 -31 20 -45 12 -48 -7 -3 -24 -9 -39 -14 -26 -10 -29 -8 -47 27 -30 60 -47 70 -82 50 -41 -24 -36 -4 7 29 67 51 206 87 244 63z m6620 -109 c0 -10 18 -46 41 -79 36 -55 40 -67 37 -113 l-3 -52 -45 -14 c-38 -11 -277 -63 -293 -63 -2 0 -4 8 -3 17 0 9 -10 22 -22 29 -13 6 -28 16 -33 21 -15 15 0 41 26 47 13 3 43 26 68 50 58 59 114 96 143 96 13 0 24 5 24 10 0 19 -29 22 -52 6 -12 -9 -35 -16 -51 -16 -28 0 -29 1 -15 23 22 33 77 57 131 57 39 0 47 -3 47 -19z m-6387 -5 c31 0 57 -3 57 -7 0 -4 -24 -15 -52 -24 -67 -22 -78 -32 -44 -41 29 -7 35 -24 8 -24 -9 0 -48 6 -85 14 -38 8 -75 12 -83 9 -24 -9 -16 14 13 36 14 12 24 23 22 25 -2 2 -13 8 -24 15 -16 10 -5 11 55 4 41 -4 101 -8 133 -7z m-1205 -56 c-22 -30 -22 -31 -4 -78 28 -74 28 -76 -7 -97 -26 -16 -74 -85 -90 -128 -1 -5 -22 -3 -45 5 -49 15 -53 32 -24 97 15 32 21 38 31 28 10 -9 15 -8 25 7 28 46 49 66 69 66 19 0 17 4 -13 22 -19 12 -37 23 -39 24 -2 2 11 21 29 44 24 30 39 40 61 40 l30 0 -23 -30z m662 21 c0 -19 -30 -39 -67 -46 -53 -10 -63 -21 -63 -74 0 -59 -35 -119 -135 -231 -74 -84 -125 -166 -125 -203 0 -14 -4 -17 -17 -12 -10 5 -36 11 -58 14 -39 6 -39 7 -17 19 32 18 99 112 190 265 87 147 152 225 215 256 44 22 77 27 77 12z m97 -39 c10 -6 9 -13 -3 -31 -20 -28 -72 -51 -114 -51 -29 0 -30 2 -19 23 24 46 51 67 88 67 20 0 42 -4 48 -8z m-969 -94 c31 -31 -1 -118 -43 -118 -12 0 -15 14 -15 65 0 61 1 65 23 65 13 0 28 -5 35 -12z m731 -252 c41 -50 13 -147 -89 -300 -37 -55 -70 -107 -74 -114 -4 -7 2 -33 14 -58 53 -108 -21 -254 -127 -254 -31 0 -32 1 -23 26 6 15 40 122 76 238 69 223 114 337 166 424 35 56 39 59 57 38z m-706 -54 c37 -32 13 -112 -34 -112 -17 0 -19 8 -19 70 0 74 8 80 53 42z m8035 -115 c44 -80 65 -165 60 -241 l-3 -49 -65 -19 c-66 -18 -165 -24 -187 -10 -12 7 -16 25 -14 55 0 9 17 25 36 34 37 18 54 48 36 66 -8 8 -21 6 -46 -6 -44 -21 -75 -22 -75 -2 0 19 36 41 82 49 21 4 40 11 43 16 14 22 -51 21 -147 -4 -106 -27 -154 -32 -176 -18 -35 23 23 64 113 82 33 6 75 16 93 21 34 11 57 41 48 64 -3 8 5 15 22 18 15 3 45 12 67 20 25 10 46 12 56 6 10 -5 35 -41 57 -82z m-7878 -101 c0 -2 -7 -17 -15 -32 -8 -16 -15 -41 -15 -56 0 -33 -31 -68 -60 -68 -18 0 -20 7 -20 73 0 41 3 77 7 80 7 7 103 10 103 3z m41 -257 c17 -17 20 -30 16 -66 -9 -84 -75 -135 -98 -76 -8 23 -6 39 16 95 15 38 31 68 36 68 5 0 19 -10 30 -21z m7886 4 c-31 -95 -32 -101 -11 -192 l20 -90 -22 -12 c-28 -15 -75 -8 -142 21 l-50 22 15 51 c17 58 36 85 73 99 19 7 21 11 10 18 -9 5 -27 3 -49 -7 -41 -18 -84 -22 -91 -9 -8 15 103 85 161 100 75 20 93 20 86 -1z m-7343 -207 c-14 -48 -47 -116 -56 -116 -20 0 -18 33 6 86 14 31 26 64 26 73 1 13 3 13 15 -3 9 -12 12 -29 9 -40z m7296 -150 c0 -27 -33 -56 -62 -56 -23 0 -68 21 -68 32 0 24 42 48 85 48 41 0 45 -2 45 -24z m-16 -369 c16 -11 15 -14 -14 -35 l-30 -23 -9 23 c-7 17 -5 26 7 36 20 15 24 15 46 -1z m-34 -159 c0 -35 -29 -58 -72 -58 -46 0 -50 19 -13 55 32 33 85 35 85 3z m-32 -131 c3 -34 1 -37 -22 -37 -35 0 -50 30 -30 59 24 33 48 23 52 -22z m-7488 -50 c0 -35 -23 -68 -57 -86 -28 -14 -33 -14 -33 2 0 20 73 126 82 121 5 -3 8 -20 8 -37z m7360 18 c0 -28 -21 -36 -87 -32 -40 2 -43 4 -43 30 0 27 1 27 65 27 63 0 65 -1 65 -25z m-7512 -61 c1 -1 0 -8 -4 -17 -7 -19 -68 -41 -89 -33 -15 5 -21 66 -9 79 4 4 73 -15 102 -29z m7526 -189 c36 -15 47 -38 23 -48 -7 -2 -29 2 -50 10 -37 15 -48 37 -24 46 6 3 13 6 13 6 1 1 18 -6 38 -14z m-7383 -76 c14 -49 9 -139 -10 -189 -22 -57 -91 -170 -105 -170 -5 0 -6 20 -3 45 3 32 20 70 56 126 62 97 68 133 17 94 -11 -8 -30 -15 -43 -15 -47 0 -22 103 32 126 38 17 48 14 56 -17z m7311 -76 c23 -11 58 -58 58 -77 0 -3 -30 4 -67 14 -68 19 -93 38 -93 72 0 16 5 18 38 12 20 -4 49 -13 64 -21z m-152 -291 c32 -16 62 -64 48 -77 -18 -19 -128 55 -128 86 0 14 42 9 80 -9z m-7100 -24 c0 -13 -18 -49 -40 -82 -48 -71 -51 -60 -9 34 32 71 49 88 49 48z"
       id="path4" />
    <path
       d="m 6199.4145,9018.291 c -23.1927,-25.9825 -69.0226,-68.7449 -101.2605,-95.1593 -57.2066,-47.6172 -257.2234,-183.8644 -274.9982,-186.703 -4.9374,-0.7885 -10.3067,7.4681 -12.0413,18.3305 -4.1002,25.6747 -19.7423,22.164 -94.9978,-20.2342 -153.1581,-87.2445 -233.3735,-206.3851 -215.5536,-317.9712 9.3042,-58.2617 20.7974,-60.477 95.5798,-15.1163 11.0614,6.8298 21.0526,1.3367 35.3844,-18.6534 l 20.5307,-27.1014 42.1541,34.074 c 24.4543,18.0827 47.1327,40.9451 51.7961,49.7912 7.8248,14.4143 14.7372,15.5182 53.9551,4.5658 l 44.4707,-12.139 37.8474,29.3356 c 237.8717,190.9007 481.9612,304.8187 806.653,376.9243 l 93.8526,21.064 27.4357,-51.3155 c 23.6847,-46.8512 29.5683,-51.9876 51.8074,-45.3981 15.4844,4.4981 31.7235,23.2942 46.9,55.0853 13.0025,26.3806 33.0751,52.8776 45.124,59.8651 17.6584,9.9087 20.9362,8.4068 24.0902,-11.343 2.0501,-12.8373 -7.4756,-35.6246 -21.8974,-53.1178 -27.8561,-34.8287 -31.3818,-69.8225 -3.6495,-53.2417 8.2566,5.3692 27.0601,14.4481 40.5695,18.6309 22.0815,7.577 27.8074,3.428 54.8113,-38.8424 39.3606,-62.5759 47.5759,-63.2893 126.9804,-15.1651 12.8786,8.1327 16.9449,1.6934 26.2153,-37.333 14.5158,-65.5309 33.5522,-70.5922 94.1944,-25.4644 27.1014,20.5308 50.5683,38.4558 52.2279,40.7461 0.8298,1.1452 -23.0953,36.8187 -52.9039,77.6285 -99.8903,130.8852 -168.1697,171.6274 -255.6242,148.5472 -36.064,-8.7973 -37.0514,-8.955 -48.9689,27.6233 -9.5107,27.8486 -21.5934,40.0965 -55.6748,56.9325 -24.0902,11.343 -50.5872,31.4156 -60.0228,46.1115 l -17.0952,24.6121 -151.0855,-24.1279 c -166.8854,-26.651 -227.7116,-26.2381 -270.9133,3.3189 l -29.4594,19.5995 -15.2929,-24.7209 -14.1477,-25.5508 -59.7149,18.8185 c -32.9776,9.9237 -63.5071,17.2002 -67.2993,15.582 -3.95,-0.6308 -25.7986,-22.3481 -49.9789,-48.4884 z"
       id="path6" />
    <path
       d="m 3291.3239,7343.6479 c -17.8635,-12.624 -62.0351,-53.2008 -96.3153,-89.9383 -84.8257,-88.4917 -102.2162,-94.5719 -155.7107,-61.1046 -23.9528,15.1401 -55.2439,26.7627 -69.2868,24.9946 -29.3622,-3.697 -103.6906,-51.9613 -225.5383,-145.1143 -145.4513,-111.6873 -207.675,-132.4904 -351.0058,-116.8185 l -74.857,7.4341 -47.8223,-63.083 c -26.6204,-35.7731 -111.4369,-134.6386 -187.6477,-219.4519 -152.7433,-167.0734 -235.3095,-283.8115 -271.605,-386.9427 -33.4302,-94.9892 -31.5106,-99.935 42.6848,-81.5152 89.1934,22.9019 163.6733,80.2633 285.7962,222.7316 135.8349,157.1634 220.5277,215.8106 340.53,230.9198 48.3509,7.3846 109.1557,8.5561 134.5367,2.6739 43.8966,-8.7386 56.1806,-3.3013 172.6189,71.0146 230.4841,147.0338 294.4666,164.1677 477.552,131.4547 134.0821,-24.6175 182.1115,-14.6797 401.3132,77.7624 179.7963,75.809 208.9979,80.7825 352.6502,62.5574 l 108.2191,-14.9052 -21.3533,-36.4069 c -11.7925,-19.6408 -17.3627,-37.2013 -10.8188,-37.6742 22.6669,-4.9272 251.4294,104.281 303.4215,144.5455 44.9753,34.1936 96.4575,109.4092 93.2428,134.9416 -1.6074,12.7662 -95.0078,54.1776 -136.0297,60.6843 -23.7828,3.4899 -111.0844,6.7634 -192.9582,8.1266 -170.1306,1.9227 -250.5855,22.9174 -310.9638,80.1582 -41.2104,38.9044 -42.6477,40.0203 -73.1072,14.1386 -45.6091,-39.4608 -137.0529,-44.4899 -255.0213,-13.9531 -111.4245,30.064 -182.4424,27.6066 -232.5242,-7.23 z"
       id="path8"
       style="stroke-width:1.2867" />
    <path
       d="m 6259.1562,8422.2542 c -120.0078,-47.5197 -258.3536,-132.3987 -272.8993,-168.1397 -8.0238,-19.5095 101.7112,16.2429 266.753,86.1444 299.9032,125.8693 394.0298,138.8757 540.0729,74.0959 44.7449,-20.1965 98.8502,-41.9362 120.1769,-48.6571 49.0515,-15.4581 117.4209,-18.7171 115.2131,-4.8923 -2.8385,17.7748 -101.0504,81.079 -156.8153,100.5283 -107.4222,38.542 -178.7541,41.3279 -363.0575,15.9459 -137.7338,-18.9576 -182.6851,-29.1742 -249.4438,-55.0254 z"
       id="path10" />
    <path
       d="m 5504.9413,8262.3143 c 1.2615,-7.8999 -21.9725,-39.9651 -160.307,-220.0334 -81.278,-106.1456 -100.4119,-163.8854 -90.965,-273.7706 6.9238,-94.0854 39.7625,-172.8929 82.9642,-202.4499 l 27.3268,-18.9274 17.4255,24.0489 c 19.915,27.4844 18.8937,46.5621 -10.1941,120.9052 l -19.6935,53.5646 53.8348,132.1432 c 29.7635,73.6147 82.3293,188.3398 118.1341,255.8307 58.9638,112.7088 62.3242,123.3721 44.632,132.6988 -22.1152,11.6583 -65.2079,8.8272 -63.1578,-4.0101 z"
       id="path12" />
    <path
       d="m 3536.271,6665.1071 c -187.3231,-46.9289 -332.4901,-119.6746 -653.8895,-327.4361 -111.4925,-72.3964 -215.9683,-138.7219 -230.484,-147.0338 -15.7924,-8.4727 -26.6298,-25.3995 -24.8617,-39.4423 6.4294,-51.0648 -18.2715,-91.7837 -92.9121,-147.8685 -72.2481,-54.4866 -98.8593,-100.6335 -74.2542,-131.2539 23.007,-28.2278 165.6948,-38.7932 302.2933,-21.5944 l 140.589,16.4044 -0.51,34.9509 c -0.6615,25.8539 -9.9286,37.6557 -41.5412,51.8315 -26.0239,10.9888 -43.9151,29.4859 -45.844,44.8054 -2.7325,21.7025 5.7217,26.6575 51.5193,33.7207 35.5845,5.7772 83.2832,28.642 139.4267,66.8355 53.751,36.5954 104.958,62.4956 140.5426,68.2729 l 54.5733,9.4649 18.1076,-82.0159 c 10.8929,-45.3154 23.0626,-90.4701 29.4549,-100.0401 8.4727,-15.7924 -3.972,-19.953 -86.158,-26.4103 -56.4928,-4.5192 -95.7465,-12.0552 -94.7821,-19.715 3.054,-24.2557 100.7757,-79.3885 149.2966,-83.6542 66.8758,-5.8453 282.1424,25.149 405.0009,58.7739 55.2069,14.7321 196.5625,66.2482 313.6624,114.7103 166.5572,67.6578 211.5418,91.4777 209.4522,108.0738 -4.3398,34.4687 -16.1509,35.5754 -62.2515,10.3181 -70.0255,-41.2383 -77.6945,-31.829 -94.7326,103.4928 -18.4847,146.8113 -10.2005,163.4166 74.7179,148.1714 41.0219,-6.5068 94.1948,-37.4208 200.2378,-117.4429 106.0429,-80.0222 157.9393,-111.097 196.2472,-116.6486 59.3766,-8.0863 123.6899,-3.8794 121.9218,10.1635 -0.4822,3.8298 -22.3733,33.495 -48.4158,65.2313 -113.1152,136.1934 -312.37,225.2293 -582.9178,262.4925 -87.1501,12.3705 -142.6878,10.5654 -316.4689,-10.0182 -252.9317,-30.5492 -323.6094,-56.3072 -471.614,-168.316 -113.7151,-85.6448 -152.9596,-103.5546 -204.3552,-97.0571 -35.4331,3.3199 -36.8705,4.4357 -13.7491,26.7998 46.2427,44.7281 181.0267,127.8382 276.5847,172.2912 160.647,73.3979 317.4921,115.1925 580.7882,156.1246 242.8701,38.3604 244.1467,38.5212 219.3901,60.0444 -58.1372,49.7419 -128.5306,62.9254 -263.0579,49.878 -70.3749,-7.5639 -169.4691,-23.9312 -221.0069,-36.9045 z m -107.0539,-396.0523 c 4.8221,-38.2985 16.6703,-80.8999 24.8215,-94.1391 29.8815,-41.6277 95.1685,-55.4542 179.7377,-37.0251 117.6005,23.8848 145.8284,46.8918 161.0737,131.8103 16.6826,83.8025 40.2677,123.084 78.5663,127.9061 24.2558,3.054 30.9696,-9.0692 60.4152,-98.7355 40.6509,-127.1614 36.0823,-193.8764 -16.2591,-200.4666 -26.809,-3.3754 -33.9958,2.204 -41.0496,37.6279 -5.2858,21.3811 -12.8033,39.8874 -16.6332,39.4052 -5.1065,-0.6429 -39.0652,-39.9338 -78.4427,-87.688 -38.1008,-47.5936 -80.9958,-88.0096 -93.7621,-89.6169 -14.0428,-1.7681 -40.0667,9.2207 -58.9131,25.0038 -41.8441,33.6373 -67.5372,31.6992 -152.7215,-12.7445 -72.9002,-39.0065 -118.0642,-40.8024 -175.3884,-7.8173 -29.5416,18.3271 -36.5769,33.0036 -43.8101,90.4515 -16.5558,131.492 37.461,227.7762 135.4393,242.7062 25.3717,4.4913 28.5678,-0.2937 36.9261,-66.678 z"
       id="path14"
       style="stroke-width:1.2867" />
    <path
       d="m 4663.289,6716.2272 c 23.6684,-54.0817 102.2779,-153.1203 217.1336,-272.2355 61.1819,-63.6239 124.7656,-136.0235 140.7465,-159.9485 47.6213,-69.2219 87.6108,-170.5294 96.9335,-244.5734 7.8761,-62.5544 11.0723,-67.3394 37.8813,-63.964 16.5961,2.0896 39.4052,16.6332 50.4033,32.2834 17.5327,25.5509 17.1927,48.8516 -0.952,172.3623 -19.5913,135.0004 -21.993,143.776 -59.5251,174.0656 -21.5603,16.7383 -96.6429,98.0649 -169.1723,179.7129 -134.8363,154.2084 -200.6333,202.9859 -282.9892,208.1789 -41.977,3.7928 -43.0929,2.3555 -30.4596,-25.8817 z"
       id="path16"
       style="stroke-width:1.2867" />
    <path
       d="m 6285.4994,8282.6618 c -280.9683,-73.2245 -503.9789,-230.3592 -576.1929,-405.9443 l -22.8849,-53.2755 27.6496,4.4156 c 42.3043,7.7685 94.6899,47.5271 163.1231,126.3047 70.9225,82.213 111.417,113.9967 166.1268,132.8604 32.4707,12.2741 36.736,10.9299 33.1766,-4.8286 -1.5432,-9.3604 10.8473,-48.9012 28.1753,-87.6535 42.9465,-91.3707 42.0754,-98.5985 -14.4104,-112.6825 -47.9138,-10.6897 -102.3908,-43.6936 -99.8676,-59.4934 2.2078,-13.8248 147.5599,-10.866 338.2201,6.4171 209.4224,20.2794 424.3942,107.2686 508.4357,208.7921 l 21.3755,24.6797 -49.5734,-12.98 c -26.3467,-6.2329 -53.9964,-10.6484 -60.5521,-7.6447 -13.1114,6.0076 -48.2256,137.1106 -42.9652,161.2421 12.7359,59.7561 167.9817,-5.5794 256.0709,-106.9563 l 36.049,-41.8387 38.4782,25.3856 c 55.8212,37.2693 109.6186,42.8225 214.5176,20.0804 114.2594,-24.2853 146.9629,-26.1514 189.9805,-10.1676 42.1879,14.8387 42.1954,40.1566 -0.06,63.7887 -24.4056,13.3179 -43.7987,14.2716 -103.0479,4.8097 l -74.0615,-11.8274 -65.4333,48.2854 c -144.2934,104.5534 -352.1164,150.3531 -622.1661,135.5819 -105.4208,-5.696 -176.5199,-17.0503 -290.1635,-47.3509 z m 9.4996,-198.9919 c 15.6196,-72.4432 41.2042,-105.8263 76.7537,-100.1491 23.6997,3.7847 24.6046,-8.2228 2.7147,-36.0227 -23.7072,-29.1027 -98.9139,-40.1003 -147.451,-21.5221 -43.1265,16.4043 -60.6535,50.0614 -59.5685,113.0203 2.388,61.1417 28.7835,98.7751 76.1829,106.3446 l 36.537,5.8349 z m 399.0726,-38.5491 c -27,-78.2369 -165.1318,-107.3848 -176.3284,-37.2732 -3.4694,21.7248 -5.4444,21.4094 37.2504,14.0502 31.3593,-6.1314 35.9813,-3.368 60.2029,28.8549 15.0939,19.6259 36.9425,41.3431 49.9788,48.4884 20.4632,11.3692 23.5833,10.8548 29.8575,-9.4093 4.025,-12.5219 3.0713,-31.915 -0.9612,-44.711 z"
       id="path18" />
    <path
       d="M3850 6420 c0 -17 64 -69 73 -60 9 8 -9 50 -27 62 -16 11 -46 10 -46 -2z"
       id="path20" />
    <path
       d="M8878 6367 c-18 -23 -68 -82 -113 -132 -96 -107 -124 -145 -155 -205 -33 -64 -50 -135 -50 -209 l0 -63 35 6 c19 4 53 18 77 31 l42 24 24 -42 c33 -59 62 -87 89 -87 19 0 23 4 19 18 -28 91 -34 288 -11 372 14 53 41 100 62 107 5 2 23 -34 38 -79 23 -68 29 -107 33 -210 5 -135 -2 -200 -48 -443 -43 -227 -44 -239 -30 -230 27 16 92 133 114 205 61 193 57 455 -14 795 -32 153 -38 172 -60 178 -15 4 -28 -6 -52 -36z"
       id="path22" />
    <path
       d="M450 6238 c-100 -174 -134 -509 -90 -883 27 -226 45 -310 86 -411 40 -100 59 -131 85 -139 32 -10 39 3 22 43 -106 252 -167 795 -106 933 20 45 77 98 91 84 14 -14 3 -112 -22 -190 -14 -44 -26 -83 -26 -87 0 -12 49 -9 73 4 12 6 43 28 70 50 68 53 88 51 127 -16 17 -30 39 -58 49 -61 20 -6 51 3 51 15 0 16 -149 379 -185 450 -60 120 -161 260 -187 260 -4 0 -21 -24 -38 -52z"
       id="path24" />
    <path
       d="m 7158.2621,7960.2611 c -132.7437,-107.2758 -261.53,-188.6028 -337.4915,-213.8983 -104.9552,-33.9765 -142.6111,-83.5349 -72.6647,-96.6688 115.6037,-20.0199 323.5054,66.8529 426.1927,178.4428 36.2704,39.2104 63.0714,112.3521 56.4481,153.8266 -5.2041,32.5871 -6.1916,32.4294 -72.4846,-21.7023 z"
       id="path26" />
    <path
       d="m 5691.0521,5824.7017 c -1.8357,-16.9006 18.3841,-147.7905 35.2035,-232.6322 9.341,-44.7408 53.7027,-176.7144 99.5409,-301.6299 130.9849,-350.4283 223.4811,-513.7239 328.109,-578.4 l 47.0168,-28.5378 -34.4718,93.9184 c -18.6347,51.7856 -78.5963,185.0396 -133.1457,296.7596 -132.746,274.2909 -235.1997,529.4933 -258.5557,644.038 l -18.6821,89.4817 -31.2137,13.3308 c -17.8354,6.8483 -32.5074,8.501 -33.8012,3.6714 z"
       id="path28" />
    <path
       d="m 4313.878,5886.3374 c -19.9437,-6.4017 -151.89,-50.2488 -292.2905,-99.0508 -140.4004,-48.8021 -314.7874,-105.7739 -387.5456,-125.3096 -161.6299,-44.9908 -427.0063,-79.7006 -560.1149,-73.1165 -53.6274,3.6227 -100.2287,2.9427 -102.4604,0.068 -12.4355,-14.5343 29.9094,-72.7488 66.1555,-92.8255 37.6835,-21.1925 58.2701,-19.8974 367.6946,15.171 350.4369,38.9353 502.1848,69.7132 672.8933,135.2999 165.6022,64.9438 320.9543,170.0965 346.2704,236.83 9.8729,24.5865 6.9982,26.8183 -31.1397,20.7196 -22.8184,-4.1699 -58.0816,-12.5004 -79.4627,-17.7861 z"
       id="path30"
       style="stroke-width:1.2867" />
    <path
       d="m 5601.573,7530.3947 c 0.4731,-2.9625 20.1741,-31.2091 42.3231,-62.1028 82.2807,-109.3932 220.8557,-184.4797 361.3455,-195.4621 74.9252,-6.2627 194.0132,2.6285 192.1208,14.4784 -3.9425,24.6871 -107.058,67.9675 -233.5991,99.4055 -164.4561,40.5732 -215.9144,64.761 -258.2788,120.7812 -28.1903,37.0176 -33.7586,40.179 -67.3331,34.8173 -20.7373,-3.3117 -37.0515,-8.955 -36.5784,-11.9175 z"
       id="path32" />
    <path
       d="M8420 5565 c0 -42 20 -84 66 -141 19 -22 43 -62 55 -89 30 -67 22 -148 -27 -263 -54 -127 -82 -212 -86 -256 l-3 -38 65 -24 65 -23 23 22 c40 37 99 147 133 247 l32 95 -35 52 c-20 28 -48 85 -63 125 -69 184 -88 222 -140 275 -61 64 -85 69 -85 18z"
       id="path34" />
    <path
       d="M799 5442 c-66 -34 -103 -85 -125 -172 -18 -73 -14 -176 11 -270 17 -63 10 -74 -53 -86 l-34 -7 6 -51 c8 -61 54 -162 98 -219 37 -46 186 -167 206 -167 11 0 13 14 7 72 -9 88 -36 168 -108 318 -65 135 -77 175 -77 252 0 75 9 96 71 164 55 61 88 123 89 167 0 36 -22 35 -91 -1z"
       id="path36" />
    <path
       d="m 6283.847,4748.0424 c 0.2371,-40.8527 2.6621,-49.5773 18.8312,-60.3273 11.1496,-6.2996 72.2899,-43.1761 136.4038,-82.0915 123.5809,-74.3084 347.3666,-239.8528 465.2306,-345.551 53.54,-47.4706 69.9055,-66.7624 66.9521,-80.8789 -2.5875,-9.6595 -12.545,-65.3807 -21.7573,-122.9579 -18.4315,-109.7692 -45.6417,-178.8821 -80.5199,-204.7376 -28.5719,-20.0911 -21.3172,-30.1096 15.9997,-23.7489 164.1153,31.4033 238.5862,173.3684 236.0052,453.5796 0.4946,49.767 -1.9305,58.4917 -17.7202,62.9285 -8.7314,2.9601 -67.9885,19.0411 -130.7748,35.8603 -110.1553,30.1297 -114.4296,32.7241 -144.0107,76.8825 -84.6521,127.6519 -199.3323,211.9991 -381.7776,285.3049 -162.0086,65.3466 -162.0086,65.3466 -162.8621,5.7373 z"
       id="path38" />
    <path
       d="M8692 4709 c-12 -20 -48 -59 -80 -85 -70 -60 -87 -79 -112 -126 -29 -54 -26 -68 12 -68 48 0 116 38 148 81 33 46 63 149 58 199 l-3 35 -23 -36z"
       id="path40" />
    <path
       d="m 5244.2404,4076.3735 c -45.4318,-50.5663 -98.5653,-178.5774 -111.8215,-269.0277 -29.2695,-203.5591 36.5312,-402.3561 153.0335,-459.0324 22.8548,-11.2986 108.4755,-23.2611 104.7499,-13.981 -1.1177,2.784 -23.2341,17.6118 -49.8077,32.8054 -63.7413,37.9874 -104.6685,96.987 -116.6379,164.3794 -11.9693,67.3924 -8.2911,95.8085 29.0052,265.9525 17.1716,78.0137 34.1466,164.5691 36.3413,191.312 6.049,62.7727 2.6214,130.3616 -5.7307,127.0085 -3.712,-1.4902 -21.3306,-19.3391 -39.1321,-39.4167 z"
       id="path42" />
    <path
       d="M649 4443 c-11 -124 84 -258 205 -291 53 -15 92 1 116 49 32 61 28 69 -32 69 -67 0 -98 19 -169 100 -46 53 -93 90 -114 90 -3 0 -6 -8 -6 -17z"
       id="path44" />
    <path
       d="M3936 4236 c-55 -118 -108 -197 -178 -263 -46 -43 -63 -53 -104 -58 -46 -7 -56 -14 -164 -124 -63 -64 -165 -163 -226 -221 -172 -163 -234 -278 -204 -384 11 -41 71 -126 89 -126 4 0 15 24 24 53 25 76 93 194 164 284 34 43 158 171 276 285 274 264 357 374 422 553 l24 65 -29 15 c-16 8 -34 15 -40 15 -6 0 -30 -42 -54 -94z"
       id="path46" />
    <path
       d="m 5628.3346,3573.2507 c -54.1698,-42.221 -77.492,-102.2301 -70.7047,-183.5561 2.2558,-21.7235 3.1838,-21.3509 42.8916,3.2108 55.4774,36.2805 120.4516,51.5892 249.316,58.065 114.5651,7.2006 202.7395,31.8234 214.4039,59.1353 4.9991,11.7051 -2.2557,21.7235 -32.3652,43.0406 -81.5903,55.606 -178.7399,80.1812 -278.0707,67.2432 -67.582,-8.8127 -84.2862,-15.5188 -125.4709,-47.1388 z"
       id="path48" />
    <path
       d="m 6578.6223,3949.3657 c -10.391,-6.3268 -19.6508,-26.2078 -21.8591,-42.1804 -5.1344,-51.6298 -63.3008,-164.4202 -116.7054,-224.6528 -47.4707,-53.5399 -91.4325,-91.6628 -286.7749,-246.593 -39.884,-32.1755 -67.704,-59.5077 -61.2011,-62.285 6.1303,-1.8492 41.0424,-2.9194 77.0653,-1.3886 54.0345,2.2963 79.653,8.2709 131.9873,33.5913 75.7173,36.863 108.5431,70.5152 206.2278,211.0238 101.39,147.3842 182.6347,218.7935 287.6962,252.3509 l 49.3741,16.589 -10.2556,33.5979 c -13.981,42.8782 -43.3523,67.7244 -86.8128,73.9834 -35.4743,5.1548 -134.0465,-20.4096 -168.7418,-44.0365 z"
       id="path50" />
    <path
       d="m 5435.5528,3301.8927 c 13.7847,-34.3363 55.2064,-43.569 113.6777,-25.4829 55.3148,17.8964 102.44,50.8237 96.1065,66.5999 -4.0981,10.2081 -106.5923,2.4656 -166.7368,-14.137 -39.9112,-10.6348 -47.5181,-15.8439 -43.0474,-26.98 z"
       id="path52" />
    <path
       d="M7395 3688 c-25 -77 -87 -196 -179 -342 -159 -254 -203 -351 -236 -521 -19 -102 -26 -152 -60 -454 -24 -204 -51 -344 -89 -461 l-29 -85 49 54 c110 123 153 256 194 597 46 389 72 460 228 611 116 114 127 133 172 306 14 54 37 124 51 155 14 31 28 76 31 99 5 35 2 45 -20 67 -18 18 -37 26 -60 26 -33 0 -36 -3 -52 -52z"
       id="path54" />
    <path
       d="m 2077.8286,3547.0983 c 0,-45 7,-116 15,-158 33,-161 238,-723 306,-836 l 30,-51 -5,125 c -9,198 -62,393 -180,663 -71,161 -155,337 -161,337 -3,0 -5,-36 -5,-80 z"
       id="path56" />
    <path
       d="m 3558.3887,2866.0416 c -15.275,-5.1647 -62.8591,-22.0394 -104.7651,-36.7323 -236.5621,-81.0333 -439.926,-174.6716 -712.4529,-329.4038 -188.4019,-106.91 -345.1833,-178.7749 -385.3961,-176.7906 -57.8697,3.4774 78.172,-72.8158 221.5631,-125.1511 409.9341,-147.8752 1157.7019,-140.9336 1706.5531,15.183 389.6,111.3052 497.5515,182.3719 928.1208,617.4479 76.1557,76.8134 103.1027,149.6891 76.1866,206.4475 -7.3246,15.8541 -30.9038,26.3431 -85.2772,37.6802 -161.5615,36.3716 -319.9645,22.3544 -604.9997,-51.2388 -280.9159,-73.7715 -298.7075,-86.5957 -66.6684,-48.3355 298.0816,49.7229 429.4748,51.0723 510.276,5.3321 l 38.92,-20.6212 -29.1915,-6.9896 c -15.6756,-3.2053 -92.0725,-23.9301 -169.2488,-45.8349 -77.1763,-21.9049 -428.6765,-99.9023 -781.1784,-173.0012 -629.3643,-131.7518 -644.0602,-134.7568 -817.1621,-196.69 -196.9942,-69.8806 -450.0113,-155.2993 -544.0214,-184.729 l -62.28,-19.8796 18.3049,30.2809 c 29.0161,47.7815 86.1314,82.936 211.0482,130.9337 63.4382,24.1992 198.5092,82.4387 298.5321,127.3876 161.6801,72.8666 334.7382,144.9977 433.046,178.3682 18.0138,6.7455 95.2559,13.3534 170.3601,15.4414 149.2286,3.9757 328.5847,25.3393 379.2864,46.9342 18.0138,6.7455 46.7608,25.8925 63.7511,42.6356 l 31.8427,28.9663 -148.9188,-30.4503 c -143.2406,-28.2686 -154.4183,-28.5127 -284.0962,-18.2839 -127.7185,10.6296 -228.2957,3.3329 -292.1345,-18.9068 z m 1319.0501,-36.4934 c 40.2347,-7.0833 42.7951,-9.6219 50.8084,-48.811 15.848,-82.4975 -23.391,-170.1348 -101.7941,-225.9733 -66.8688,-47.3559 -112.8721,-66.9694 -335.7399,-140.0991 -111.8236,-37.1549 -287.486,-96.5495 -389.5123,-131.7011 -234.6026,-80.6327 -407.1912,-125.1092 -497.5923,-127.263 -37.452,-1.5338 -139.4533,3.1266 -226.7588,10.7921 -86.1254,6.886 -210.0814,9.0986 -273.407,4.3156 -141.1685,-8.4517 -179.2215,-7.0464 -228.3394,13.5309 -45.5778,18.2391 -74.3876,59.2999 -55.8386,78.4032 28.1241,27.1852 183.3029,106.888 272.5928,139.4353 163.1043,60.9095 299.6653,91.895 734.3298,167.5044 468.1755,81.441 599.2369,114.364 764.2349,190.9712 111.7578,52.4518 225.5847,79.8094 287.0165,68.8948 z"
       id="path58" />
    <path
       d="m 4067.1714,2034.3271 c 197,-191 535,-359 815,-406 233,-38 573,-39 735,-1 85,19 128,44 225,130 41,37 120,98 175,135 55,38 111,80 124,94 l 24,26 h -26 c -39,0 -148,-43 -262,-104 -172,-91 -297,-127 -517,-147 -404,-37 -908,82 -1281,304 -43,26 -82,47 -85,47 -4,0 29,-35 73,-78 z"
       id="path60" />
    <path
       d="m 5109.3778,1465.5112 c -134,-15 -248,-53 -282,-93 -10,-13 2,-16 96,-22 116,-8 388,-1 561,16 105,9 191,38 199,65 8,24 -433,51 -574,34 z"
       id="path62" />
  </g>
</svg>
