<?xml version="1.0" encoding="utf-8" standalone="no"?>
<!DOCTYPE svg PUBLIC "-//W3C//DTD SVG 1.1//EN"
  "http://www.w3.org/Graphics/SVG/1.1/DTD/svg11.dtd">
<svg xmlns:xlink="http://www.w3.org/1999/xlink" width="460.8pt" height="345.6pt" viewBox="0 0 460.8 345.6" xmlns="http://www.w3.org/2000/svg" version="1.1">
 <metadata>
  <rdf:RDF xmlns:dc="http://purl.org/dc/elements/1.1/" xmlns:cc="http://creativecommons.org/ns#" xmlns:rdf="http://www.w3.org/1999/02/22-rdf-syntax-ns#">
   <cc:Work>
    <dc:type rdf:resource="http://purl.org/dc/dcmitype/StillImage"/>
    <dc:date>2022-06-02T13:00:54.550036</dc:date>
    <dc:format>image/svg+xml</dc:format>
    <dc:creator>
     <cc:Agent>
      <dc:title>Matplotlib v3.5.2, https://matplotlib.org/</dc:title>
     </cc:Agent>
    </dc:creator>
   </cc:Work>
  </rdf:RDF>
 </metadata>
 <defs>
  <style type="text/css">*{stroke-linejoin: round; stroke-linecap: butt}</style>
 </defs>
 <g id="figure_1">
  <g id="patch_1">
   <path d="M 0 345.6 
L 460.8 345.6 
L 460.8 0 
L 0 0 
z
" style="fill: #ffffff"/>
  </g>
  <g id="axes_1">
   <g id="patch_2">
    <path d="M 57.6 307.584 
L 414.72 307.584 
L 414.72 41.472 
L 57.6 41.472 
z
" style="fill: #eaeaf2"/>
   </g>
   <g id="matplotlib.axis_1">
    <g id="xtick_1">
     <g id="line2d_1">
      <path d="M 95.768845 307.584 
L 95.768845 41.472 
" clip-path="url(#p28fab866d9)" style="fill: none; stroke: #ffffff; stroke-linecap: round"/>
     </g>
     <g id="text_1">
      <!-- 1950 -->
      <g style="fill: #262626" transform="translate(83.534783 324.957594)scale(0.11 -0.11)">
       <defs>
        <path id="ArialMT-31" d="M 2384 0 
L 1822 0 
L 1822 3584 
Q 1619 3391 1289 3197 
Q 959 3003 697 2906 
L 697 3450 
Q 1169 3672 1522 3987 
Q 1875 4303 2022 4600 
L 2384 4600 
L 2384 0 
z
" transform="scale(0.015625)"/>
        <path id="ArialMT-39" d="M 350 1059 
L 891 1109 
Q 959 728 1153 556 
Q 1347 384 1650 384 
Q 1909 384 2104 503 
Q 2300 622 2425 820 
Q 2550 1019 2634 1356 
Q 2719 1694 2719 2044 
Q 2719 2081 2716 2156 
Q 2547 1888 2255 1720 
Q 1963 1553 1622 1553 
Q 1053 1553 659 1965 
Q 266 2378 266 3053 
Q 266 3750 677 4175 
Q 1088 4600 1706 4600 
Q 2153 4600 2523 4359 
Q 2894 4119 3086 3673 
Q 3278 3228 3278 2384 
Q 3278 1506 3087 986 
Q 2897 466 2520 194 
Q 2144 -78 1638 -78 
Q 1100 -78 759 220 
Q 419 519 350 1059 
z
M 2653 3081 
Q 2653 3566 2395 3850 
Q 2138 4134 1775 4134 
Q 1400 4134 1122 3828 
Q 844 3522 844 3034 
Q 844 2597 1108 2323 
Q 1372 2050 1759 2050 
Q 2150 2050 2401 2323 
Q 2653 2597 2653 3081 
z
" transform="scale(0.015625)"/>
        <path id="ArialMT-35" d="M 266 1200 
L 856 1250 
Q 922 819 1161 601 
Q 1400 384 1738 384 
Q 2144 384 2425 690 
Q 2706 997 2706 1503 
Q 2706 1984 2436 2262 
Q 2166 2541 1728 2541 
Q 1456 2541 1237 2417 
Q 1019 2294 894 2097 
L 366 2166 
L 809 4519 
L 3088 4519 
L 3088 3981 
L 1259 3981 
L 1013 2750 
Q 1425 3038 1878 3038 
Q 2478 3038 2890 2622 
Q 3303 2206 3303 1553 
Q 3303 931 2941 478 
Q 2500 -78 1738 -78 
Q 1113 -78 717 272 
Q 322 622 266 1200 
z
" transform="scale(0.015625)"/>
        <path id="ArialMT-30" d="M 266 2259 
Q 266 3072 433 3567 
Q 600 4063 929 4331 
Q 1259 4600 1759 4600 
Q 2128 4600 2406 4451 
Q 2684 4303 2865 4023 
Q 3047 3744 3150 3342 
Q 3253 2941 3253 2259 
Q 3253 1453 3087 958 
Q 2922 463 2592 192 
Q 2263 -78 1759 -78 
Q 1097 -78 719 397 
Q 266 969 266 2259 
z
M 844 2259 
Q 844 1131 1108 757 
Q 1372 384 1759 384 
Q 2147 384 2411 759 
Q 2675 1134 2675 2259 
Q 2675 3391 2411 3762 
Q 2147 4134 1753 4134 
Q 1366 4134 1134 3806 
Q 844 3388 844 2259 
z
" transform="scale(0.015625)"/>
       </defs>
       <use xlink:href="#ArialMT-31"/>
       <use xlink:href="#ArialMT-39" x="55.615234"/>
       <use xlink:href="#ArialMT-35" x="111.230469"/>
       <use xlink:href="#ArialMT-30" x="166.845703"/>
      </g>
     </g>
    </g>
    <g id="xtick_2">
     <g id="line2d_2">
      <path d="M 139.641081 307.584 
L 139.641081 41.472 
" clip-path="url(#p28fab866d9)" style="fill: none; stroke: #ffffff; stroke-linecap: round"/>
     </g>
     <g id="text_2">
      <!-- 1960 -->
      <g style="fill: #262626" transform="translate(127.407019 324.957594)scale(0.11 -0.11)">
       <defs>
        <path id="ArialMT-36" d="M 3184 3459 
L 2625 3416 
Q 2550 3747 2413 3897 
Q 2184 4138 1850 4138 
Q 1581 4138 1378 3988 
Q 1113 3794 959 3422 
Q 806 3050 800 2363 
Q 1003 2672 1297 2822 
Q 1591 2972 1913 2972 
Q 2475 2972 2870 2558 
Q 3266 2144 3266 1488 
Q 3266 1056 3080 686 
Q 2894 316 2569 119 
Q 2244 -78 1831 -78 
Q 1128 -78 684 439 
Q 241 956 241 2144 
Q 241 3472 731 4075 
Q 1159 4600 1884 4600 
Q 2425 4600 2770 4297 
Q 3116 3994 3184 3459 
z
M 888 1484 
Q 888 1194 1011 928 
Q 1134 663 1356 523 
Q 1578 384 1822 384 
Q 2178 384 2434 671 
Q 2691 959 2691 1453 
Q 2691 1928 2437 2201 
Q 2184 2475 1800 2475 
Q 1419 2475 1153 2201 
Q 888 1928 888 1484 
z
" transform="scale(0.015625)"/>
       </defs>
       <use xlink:href="#ArialMT-31"/>
       <use xlink:href="#ArialMT-39" x="55.615234"/>
       <use xlink:href="#ArialMT-36" x="111.230469"/>
       <use xlink:href="#ArialMT-30" x="166.845703"/>
      </g>
     </g>
    </g>
    <g id="xtick_3">
     <g id="line2d_3">
      <path d="M 183.513317 307.584 
L 183.513317 41.472 
" clip-path="url(#p28fab866d9)" style="fill: none; stroke: #ffffff; stroke-linecap: round"/>
     </g>
     <g id="text_3">
      <!-- 1970 -->
      <g style="fill: #262626" transform="translate(171.279254 324.957594)scale(0.11 -0.11)">
       <defs>
        <path id="ArialMT-37" d="M 303 3981 
L 303 4522 
L 3269 4522 
L 3269 4084 
Q 2831 3619 2401 2847 
Q 1972 2075 1738 1259 
Q 1569 684 1522 0 
L 944 0 
Q 953 541 1156 1306 
Q 1359 2072 1739 2783 
Q 2119 3494 2547 3981 
L 303 3981 
z
" transform="scale(0.015625)"/>
       </defs>
       <use xlink:href="#ArialMT-31"/>
       <use xlink:href="#ArialMT-39" x="55.615234"/>
       <use xlink:href="#ArialMT-37" x="111.230469"/>
       <use xlink:href="#ArialMT-30" x="166.845703"/>
      </g>
     </g>
    </g>
    <g id="xtick_4">
     <g id="line2d_4">
      <path d="M 227.385553 307.584 
L 227.385553 41.472 
" clip-path="url(#p28fab866d9)" style="fill: none; stroke: #ffffff; stroke-linecap: round"/>
     </g>
     <g id="text_4">
      <!-- 1980 -->
      <g style="fill: #262626" transform="translate(215.15149 324.957594)scale(0.11 -0.11)">
       <defs>
        <path id="ArialMT-38" d="M 1131 2484 
Q 781 2613 612 2850 
Q 444 3088 444 3419 
Q 444 3919 803 4259 
Q 1163 4600 1759 4600 
Q 2359 4600 2725 4251 
Q 3091 3903 3091 3403 
Q 3091 3084 2923 2848 
Q 2756 2613 2416 2484 
Q 2838 2347 3058 2040 
Q 3278 1734 3278 1309 
Q 3278 722 2862 322 
Q 2447 -78 1769 -78 
Q 1091 -78 675 323 
Q 259 725 259 1325 
Q 259 1772 486 2073 
Q 713 2375 1131 2484 
z
M 1019 3438 
Q 1019 3113 1228 2906 
Q 1438 2700 1772 2700 
Q 2097 2700 2305 2904 
Q 2513 3109 2513 3406 
Q 2513 3716 2298 3927 
Q 2084 4138 1766 4138 
Q 1444 4138 1231 3931 
Q 1019 3725 1019 3438 
z
M 838 1322 
Q 838 1081 952 856 
Q 1066 631 1291 507 
Q 1516 384 1775 384 
Q 2178 384 2440 643 
Q 2703 903 2703 1303 
Q 2703 1709 2433 1975 
Q 2163 2241 1756 2241 
Q 1359 2241 1098 1978 
Q 838 1716 838 1322 
z
" transform="scale(0.015625)"/>
       </defs>
       <use xlink:href="#ArialMT-31"/>
       <use xlink:href="#ArialMT-39" x="55.615234"/>
       <use xlink:href="#ArialMT-38" x="111.230469"/>
       <use xlink:href="#ArialMT-30" x="166.845703"/>
      </g>
     </g>
    </g>
    <g id="xtick_5">
     <g id="line2d_5">
      <path d="M 271.257789 307.584 
L 271.257789 41.472 
" clip-path="url(#p28fab866d9)" style="fill: none; stroke: #ffffff; stroke-linecap: round"/>
     </g>
     <g id="text_5">
      <!-- 1990 -->
      <g style="fill: #262626" transform="translate(259.023726 324.957594)scale(0.11 -0.11)">
       <use xlink:href="#ArialMT-31"/>
       <use xlink:href="#ArialMT-39" x="55.615234"/>
       <use xlink:href="#ArialMT-39" x="111.230469"/>
       <use xlink:href="#ArialMT-30" x="166.845703"/>
      </g>
     </g>
    </g>
    <g id="xtick_6">
     <g id="line2d_6">
      <path d="M 315.130025 307.584 
L 315.130025 41.472 
" clip-path="url(#p28fab866d9)" style="fill: none; stroke: #ffffff; stroke-linecap: round"/>
     </g>
     <g id="text_6">
      <!-- 2000 -->
      <g style="fill: #262626" transform="translate(302.895962 324.957594)scale(0.11 -0.11)">
       <defs>
        <path id="ArialMT-32" d="M 3222 541 
L 3222 0 
L 194 0 
Q 188 203 259 391 
Q 375 700 629 1000 
Q 884 1300 1366 1694 
Q 2113 2306 2375 2664 
Q 2638 3022 2638 3341 
Q 2638 3675 2398 3904 
Q 2159 4134 1775 4134 
Q 1369 4134 1125 3890 
Q 881 3647 878 3216 
L 300 3275 
Q 359 3922 746 4261 
Q 1134 4600 1788 4600 
Q 2447 4600 2831 4234 
Q 3216 3869 3216 3328 
Q 3216 3053 3103 2787 
Q 2991 2522 2730 2228 
Q 2469 1934 1863 1422 
Q 1356 997 1212 845 
Q 1069 694 975 541 
L 3222 541 
z
" transform="scale(0.015625)"/>
       </defs>
       <use xlink:href="#ArialMT-32"/>
       <use xlink:href="#ArialMT-30" x="55.615234"/>
       <use xlink:href="#ArialMT-30" x="111.230469"/>
       <use xlink:href="#ArialMT-30" x="166.845703"/>
      </g>
     </g>
    </g>
    <g id="xtick_7">
     <g id="line2d_7">
      <path d="M 359.00226 307.584 
L 359.00226 41.472 
" clip-path="url(#p28fab866d9)" style="fill: none; stroke: #ffffff; stroke-linecap: round"/>
     </g>
     <g id="text_7">
      <!-- 2010 -->
      <g style="fill: #262626" transform="translate(346.768198 324.957594)scale(0.11 -0.11)">
       <use xlink:href="#ArialMT-32"/>
       <use xlink:href="#ArialMT-30" x="55.615234"/>
       <use xlink:href="#ArialMT-31" x="111.230469"/>
       <use xlink:href="#ArialMT-30" x="166.845703"/>
      </g>
     </g>
    </g>
    <g id="xtick_8">
     <g id="line2d_8">
      <path d="M 402.874496 307.584 
L 402.874496 41.472 
" clip-path="url(#p28fab866d9)" style="fill: none; stroke: #ffffff; stroke-linecap: round"/>
     </g>
     <g id="text_8">
      <!-- 2020 -->
      <g style="fill: #262626" transform="translate(390.640434 324.957594)scale(0.11 -0.11)">
       <use xlink:href="#ArialMT-32"/>
       <use xlink:href="#ArialMT-30" x="55.615234"/>
       <use xlink:href="#ArialMT-32" x="111.230469"/>
       <use xlink:href="#ArialMT-30" x="166.845703"/>
      </g>
     </g>
    </g>
    <g id="text_9">
     <!-- Έτος -->
     <g style="fill: #262626" transform="translate(218.5325 342.596344)scale(0.16 -0.16)">
      <defs>
       <path id="ArialMT-388" d="M 1253 0 
L 1253 4581 
L 4566 4581 
L 4566 4041 
L 1859 4041 
L 1859 2638 
L 4394 2638 
L 4394 2100 
L 1859 2100 
L 1859 541 
L 4672 541 
L 4672 0 
L 1253 0 
z
M -278 3706 
L 138 4581 
L 875 4581 
L 188 3706 
L -278 3706 
z
" transform="scale(0.015625)"/>
       <path id="ArialMT-3c4" d="M 1581 2863 
L 1581 0 
L 1019 0 
L 1019 2863 
L 144 2863 
L 144 3319 
L 2381 3319 
L 2381 2863 
L 1581 2863 
z
" transform="scale(0.015625)"/>
       <path id="ArialMT-3bf" d="M 213 1659 
Q 213 2581 725 3025 
Q 1153 3394 1769 3394 
Q 2453 3394 2887 2945 
Q 3322 2497 3322 1706 
Q 3322 1066 3130 698 
Q 2938 331 2570 128 
Q 2203 -75 1769 -75 
Q 1072 -75 642 372 
Q 213 819 213 1659 
z
M 791 1659 
Q 791 1022 1069 705 
Q 1347 388 1769 388 
Q 2188 388 2466 706 
Q 2744 1025 2744 1678 
Q 2744 2294 2464 2611 
Q 2184 2928 1769 2928 
Q 1347 2928 1069 2612 
Q 791 2297 791 1659 
z
" transform="scale(0.015625)"/>
       <path id="ArialMT-3c2" d="M 3019 3288 
L 2888 2819 
Q 2538 2928 2188 2928 
Q 1559 2928 1187 2539 
Q 816 2150 816 1625 
Q 816 1263 1020 983 
Q 1225 703 1831 544 
Q 2266 428 2459 326 
Q 2653 225 2762 45 
Q 2872 -134 2872 -369 
Q 2872 -797 2525 -1072 
Q 2178 -1347 1659 -1347 
Q 1450 -1347 1184 -1303 
L 1322 -788 
Q 1503 -825 1638 -825 
Q 1938 -825 2109 -695 
Q 2281 -566 2281 -381 
Q 2281 -213 2157 -123 
Q 2034 -34 1641 50 
Q 947 197 608 590 
Q 269 984 269 1528 
Q 269 2281 808 2837 
Q 1347 3394 2259 3394 
Q 2644 3394 3019 3288 
z
" transform="scale(0.015625)"/>
      </defs>
      <use xlink:href="#ArialMT-388"/>
      <use xlink:href="#ArialMT-3c4" x="78.417969"/>
      <use xlink:href="#ArialMT-3bf" x="116.544922"/>
      <use xlink:href="#ArialMT-3c2" x="172.160156"/>
     </g>
    </g>
   </g>
   <g id="matplotlib.axis_2">
    <g id="ytick_1">
     <g id="line2d_9">
      <path d="M 57.6 303.73517 
L 414.72 303.73517 
" clip-path="url(#p28fab866d9)" style="fill: none; stroke: #ffffff; stroke-linecap: round"/>
     </g>
     <g id="text_10">
      <!-- 0.0 -->
      <g style="fill: #262626" transform="translate(32.81 307.671967)scale(0.11 -0.11)">
       <defs>
        <path id="ArialMT-2e" d="M 581 0 
L 581 641 
L 1222 641 
L 1222 0 
L 581 0 
z
" transform="scale(0.015625)"/>
       </defs>
       <use xlink:href="#ArialMT-30"/>
       <use xlink:href="#ArialMT-2e" x="55.615234"/>
       <use xlink:href="#ArialMT-30" x="83.398438"/>
      </g>
     </g>
    </g>
    <g id="ytick_2">
     <g id="line2d_10">
      <path d="M 57.6 253.588692 
L 414.72 253.588692 
" clip-path="url(#p28fab866d9)" style="fill: none; stroke: #ffffff; stroke-linecap: round"/>
     </g>
     <g id="text_11">
      <!-- 0.2 -->
      <g style="fill: #262626" transform="translate(32.81 257.525489)scale(0.11 -0.11)">
       <use xlink:href="#ArialMT-30"/>
       <use xlink:href="#ArialMT-2e" x="55.615234"/>
       <use xlink:href="#ArialMT-32" x="83.398438"/>
      </g>
     </g>
    </g>
    <g id="ytick_3">
     <g id="line2d_11">
      <path d="M 57.6 203.442214 
L 414.72 203.442214 
" clip-path="url(#p28fab866d9)" style="fill: none; stroke: #ffffff; stroke-linecap: round"/>
     </g>
     <g id="text_12">
      <!-- 0.4 -->
      <g style="fill: #262626" transform="translate(32.81 207.379011)scale(0.11 -0.11)">
       <defs>
        <path id="ArialMT-34" d="M 2069 0 
L 2069 1097 
L 81 1097 
L 81 1613 
L 2172 4581 
L 2631 4581 
L 2631 1613 
L 3250 1613 
L 3250 1097 
L 2631 1097 
L 2631 0 
L 2069 0 
z
M 2069 1613 
L 2069 3678 
L 634 1613 
L 2069 1613 
z
" transform="scale(0.015625)"/>
       </defs>
       <use xlink:href="#ArialMT-30"/>
       <use xlink:href="#ArialMT-2e" x="55.615234"/>
       <use xlink:href="#ArialMT-34" x="83.398438"/>
      </g>
     </g>
    </g>
    <g id="ytick_4">
     <g id="line2d_12">
      <path d="M 57.6 153.295736 
L 414.72 153.295736 
" clip-path="url(#p28fab866d9)" style="fill: none; stroke: #ffffff; stroke-linecap: round"/>
     </g>
     <g id="text_13">
      <!-- 0.6 -->
      <g style="fill: #262626" transform="translate(32.81 157.232533)scale(0.11 -0.11)">
       <use xlink:href="#ArialMT-30"/>
       <use xlink:href="#ArialMT-2e" x="55.615234"/>
       <use xlink:href="#ArialMT-36" x="83.398438"/>
      </g>
     </g>
    </g>
    <g id="ytick_5">
     <g id="line2d_13">
      <path d="M 57.6 103.149258 
L 414.72 103.149258 
" clip-path="url(#p28fab866d9)" style="fill: none; stroke: #ffffff; stroke-linecap: round"/>
     </g>
     <g id="text_14">
      <!-- 0.8 -->
      <g style="fill: #262626" transform="translate(32.81 107.086055)scale(0.11 -0.11)">
       <use xlink:href="#ArialMT-30"/>
       <use xlink:href="#ArialMT-2e" x="55.615234"/>
       <use xlink:href="#ArialMT-38" x="83.398438"/>
      </g>
     </g>
    </g>
    <g id="ytick_6">
     <g id="line2d_14">
      <path d="M 57.6 53.00278 
L 414.72 53.00278 
" clip-path="url(#p28fab866d9)" style="fill: none; stroke: #ffffff; stroke-linecap: round"/>
     </g>
     <g id="text_15">
      <!-- 1.0 -->
      <g style="fill: #262626" transform="translate(32.81 56.939577)scale(0.11 -0.11)">
       <use xlink:href="#ArialMT-31"/>
       <use xlink:href="#ArialMT-2e" x="55.615234"/>
       <use xlink:href="#ArialMT-30" x="83.398438"/>
      </g>
     </g>
    </g>
    <g id="text_16">
     <!-- Συχνότητα Λέξης 'AI' -->
     <g style="fill: #262626" transform="translate(25.4425 247.08425)rotate(-90)scale(0.16 -0.16)">
      <defs>
       <path id="ArialMT-3a3" d="M 3578 4581 
L 3578 4041 
L 1119 4041 
L 2681 2378 
L 1119 541 
L 3706 541 
L 3706 0 
L 463 0 
L 463 631 
L 1959 2378 
L 463 3972 
L 463 4581 
L 3578 4581 
z
" transform="scale(0.015625)"/>
       <path id="ArialMT-3c5" d="M 425 3319 
L 988 3319 
L 988 1353 
Q 988 844 1216 616 
Q 1444 388 1750 388 
Q 2003 388 2190 531 
Q 2378 675 2450 862 
Q 2522 1050 2522 1397 
L 2522 3319 
L 3081 3319 
L 3081 1375 
Q 3081 634 2712 279 
Q 2344 -75 1741 -75 
Q 1275 -75 970 133 
Q 666 341 545 612 
Q 425 884 425 1353 
L 425 3319 
z
" transform="scale(0.015625)"/>
       <path id="ArialMT-3c7" d="M 150 3319 
L 763 3319 
L 1675 1481 
L 2619 3319 
L 3238 3319 
L 2019 1056 
L 3300 -1272 
L 2659 -1272 
L 1675 644 
L 681 -1272 
L 53 -1272 
L 1331 1038 
L 150 3319 
z
" transform="scale(0.015625)"/>
       <path id="ArialMT-3bd" d="M 1344 0 
L 81 3319 
L 675 3319 
L 1388 1331 
Q 1503 1009 1600 663 
Q 1675 925 1809 1294 
L 2547 3319 
L 3125 3319 
L 1869 0 
L 1344 0 
z
" transform="scale(0.015625)"/>
       <path id="ArialMT-3cc" d="M 213 1659 
Q 213 2581 725 3025 
Q 1153 3394 1769 3394 
Q 2453 3394 2887 2945 
Q 3322 2497 3322 1706 
Q 3322 1066 3130 698 
Q 2938 331 2570 128 
Q 2203 -75 1769 -75 
Q 1072 -75 642 372 
Q 213 819 213 1659 
z
M 791 1659 
Q 791 1022 1069 705 
Q 1347 388 1769 388 
Q 2188 388 2466 706 
Q 2744 1025 2744 1678 
Q 2744 2294 2464 2611 
Q 2184 2928 1769 2928 
Q 1347 2928 1069 2612 
Q 791 2297 791 1659 
z
M 1454 3731 
L 1869 4606 
L 2607 4606 
L 1919 3731 
L 1454 3731 
z
" transform="scale(0.015625)"/>
       <path id="ArialMT-3b7" d="M 434 0 
L 434 3319 
L 941 3319 
L 941 2847 
Q 1306 3394 1997 3394 
Q 2403 3394 2678 3219 
Q 2953 3044 3042 2786 
Q 3131 2528 3131 2041 
L 3131 -1272 
L 2569 -1272 
L 2569 2019 
Q 2569 2481 2406 2693 
Q 2244 2906 1872 2906 
Q 1506 2906 1251 2672 
Q 997 2438 997 1813 
L 997 0 
L 434 0 
z
" transform="scale(0.015625)"/>
       <path id="ArialMT-3b1" d="M 2884 3319 
L 3459 3319 
Q 3241 2631 3056 1659 
Q 3275 453 3459 0 
L 2900 0 
Q 2766 313 2697 606 
Q 2438 -75 1613 -75 
Q 988 -75 606 394 
Q 225 863 225 1666 
Q 225 2491 608 2942 
Q 991 3394 1622 3394 
Q 2013 3394 2259 3236 
Q 2506 3078 2719 2756 
Q 2741 2866 2884 3319 
z
M 1716 2928 
Q 1313 2928 1078 2603 
Q 844 2278 844 1666 
Q 844 1069 1066 728 
Q 1288 388 1684 388 
Q 2072 388 2331 723 
Q 2591 1059 2591 1691 
Q 2591 2303 2348 2615 
Q 2106 2928 1716 2928 
z
" transform="scale(0.015625)"/>
       <path id="ArialMT-20" transform="scale(0.015625)"/>
       <path id="ArialMT-39b" d="M 2450 4581 
L 4225 0 
L 3566 0 
L 2375 3325 
Q 2219 3763 2134 4078 
Q 2031 3700 1891 3325 
L 653 0 
L 34 0 
L 1825 4581 
L 2450 4581 
z
" transform="scale(0.015625)"/>
       <path id="ArialMT-3ad" d="M 2591 2944 
L 2188 2619 
Q 1803 2909 1469 2909 
Q 1194 2909 1067 2762 
Q 941 2616 941 2447 
Q 941 2228 1128 2083 
Q 1316 1938 1678 1938 
Q 1725 1938 1834 1941 
L 1834 1469 
Q 1734 1472 1684 1472 
Q 1238 1472 1064 1300 
Q 891 1128 891 913 
Q 891 691 1066 539 
Q 1241 388 1481 388 
Q 1922 388 2306 797 
L 2709 456 
Q 2209 -75 1466 -75 
Q 881 -75 593 222 
Q 306 519 306 913 
Q 306 1478 856 1716 
Q 397 1975 397 2431 
Q 397 2803 669 3098 
Q 941 3394 1503 3394 
Q 2147 3394 2591 2944 
z
M 1142 3731 
L 1557 4606 
L 2295 4606 
L 1607 3731 
L 1142 3731 
z
" transform="scale(0.015625)"/>
       <path id="ArialMT-3be" d="M 2413 4659 
L 2413 4194 
L 1953 4194 
Q 1441 4194 1211 4042 
Q 981 3891 981 3609 
Q 981 3072 1916 3072 
L 2375 3072 
L 2375 2606 
Q 1963 2606 1656 2484 
Q 1350 2363 1104 2047 
Q 859 1731 859 1331 
Q 859 1031 1036 797 
Q 1213 563 1794 497 
Q 2169 453 2344 358 
Q 2519 263 2634 69 
Q 2750 -125 2750 -350 
Q 2750 -763 2409 -1052 
Q 2069 -1341 1491 -1347 
L 1634 -825 
Q 1944 -803 2073 -665 
Q 2203 -528 2203 -384 
Q 2203 -66 1669 -6 
Q 288 144 288 1313 
Q 288 1791 573 2172 
Q 859 2553 1303 2744 
Q 859 2800 657 3079 
Q 456 3359 456 3650 
Q 456 4056 814 4357 
Q 1172 4659 1856 4659 
L 2413 4659 
z
" transform="scale(0.015625)"/>
       <path id="ArialMT-27" d="M 425 2959 
L 281 3816 
L 281 4581 
L 922 4581 
L 922 3816 
L 772 2959 
L 425 2959 
z
" transform="scale(0.015625)"/>
       <path id="ArialMT-41" d="M -9 0 
L 1750 4581 
L 2403 4581 
L 4278 0 
L 3588 0 
L 3053 1388 
L 1138 1388 
L 634 0 
L -9 0 
z
M 1313 1881 
L 2866 1881 
L 2388 3150 
Q 2169 3728 2063 4100 
Q 1975 3659 1816 3225 
L 1313 1881 
z
" transform="scale(0.015625)"/>
       <path id="ArialMT-49" d="M 597 0 
L 597 4581 
L 1203 4581 
L 1203 0 
L 597 0 
z
" transform="scale(0.015625)"/>
      </defs>
      <use xlink:href="#ArialMT-3a3"/>
      <use xlink:href="#ArialMT-3c5" x="61.816406"/>
      <use xlink:href="#ArialMT-3c7" x="116.503906"/>
      <use xlink:href="#ArialMT-3bd" x="168.994141"/>
      <use xlink:href="#ArialMT-3cc" x="218.994141"/>
      <use xlink:href="#ArialMT-3c4" x="273.234375"/>
      <use xlink:href="#ArialMT-3b7" x="312.736328"/>
      <use xlink:href="#ArialMT-3c4" x="368.351562"/>
      <use xlink:href="#ArialMT-3b1" x="406.478516"/>
      <use xlink:href="#ArialMT-20" x="464.291016"/>
      <use xlink:href="#ArialMT-39b" x="486.574219"/>
      <use xlink:href="#ArialMT-3ad" x="553.371094"/>
      <use xlink:href="#ArialMT-3be" x="597.951172"/>
      <use xlink:href="#ArialMT-3b7" x="642.726562"/>
      <use xlink:href="#ArialMT-3c2" x="698.341797"/>
      <use xlink:href="#ArialMT-20" x="746.535156"/>
      <use xlink:href="#ArialMT-27" x="774.318359"/>
      <use xlink:href="#ArialMT-41" x="793.410156"/>
      <use xlink:href="#ArialMT-49" x="860.109375"/>
      <use xlink:href="#ArialMT-27" x="887.892578"/>
     </g>
    </g>
    <g id="text_17">
     <!-- 1e−5 -->
     <g style="fill: #262626" transform="translate(57.6 38.472)scale(0.11 -0.11)">
      <defs>
       <path id="ArialMT-65" d="M 2694 1069 
L 3275 997 
Q 3138 488 2766 206 
Q 2394 -75 1816 -75 
Q 1088 -75 661 373 
Q 234 822 234 1631 
Q 234 2469 665 2931 
Q 1097 3394 1784 3394 
Q 2450 3394 2872 2941 
Q 3294 2488 3294 1666 
Q 3294 1616 3291 1516 
L 816 1516 
Q 847 969 1125 678 
Q 1403 388 1819 388 
Q 2128 388 2347 550 
Q 2566 713 2694 1069 
z
M 847 1978 
L 2700 1978 
Q 2663 2397 2488 2606 
Q 2219 2931 1791 2931 
Q 1403 2931 1139 2672 
Q 875 2413 847 1978 
z
" transform="scale(0.015625)"/>
       <path id="ArialMT-2212" d="M 3381 1997 
L 356 1997 
L 356 2522 
L 3381 2522 
L 3381 1997 
z
" transform="scale(0.015625)"/>
      </defs>
      <use xlink:href="#ArialMT-31"/>
      <use xlink:href="#ArialMT-65" x="55.615234"/>
      <use xlink:href="#ArialMT-2212" x="111.230469"/>
      <use xlink:href="#ArialMT-35" x="169.628906"/>
     </g>
    </g>
   </g>
   <g id="line2d_15">
    <path d="M 73.832727 295.488 
L 78.219951 285.920295 
L 82.607174 283.139473 
L 86.994398 283.985595 
L 91.381622 285.899574 
L 95.768845 285.929433 
L 100.156069 286.33227 
L 104.543292 282.175933 
L 108.930516 281.34853 
L 113.31774 283.850489 
L 117.704963 282.636899 
L 122.092187 279.254629 
L 126.47941 275.44395 
L 130.866634 271.392831 
L 135.253857 271.846123 
L 139.641081 274.288662 
L 144.028305 260.065177 
L 148.415528 237.938983 
L 152.802752 231.28574 
L 157.189975 231.960231 
L 161.577199 230.612929 
L 165.964423 236.282522 
L 170.351646 216.058241 
L 174.73887 202.871322 
L 179.126093 225.594751 
L 183.513317 233.913303 
L 187.900541 236.898421 
L 192.287764 243.700226 
L 196.674988 242.244887 
L 201.062211 239.716807 
L 205.449435 238.125434 
L 209.836658 233.389156 
L 214.223882 225.504453 
L 218.611106 225.808513 
L 222.998329 229.034055 
L 227.385553 228.480973 
L 231.772776 224.792139 
L 236.16 218.757047 
L 240.547224 215.302022 
L 244.934447 196.487195 
L 249.321671 169.781137 
L 253.708894 151.164744 
L 258.096118 131.366753 
L 262.483342 127.674053 
L 266.870565 143.22408 
L 271.257789 142.921163 
L 275.645012 146.874415 
L 280.032236 159.908166 
L 284.419459 167.551147 
L 288.806683 171.615249 
L 293.193907 169.339538 
L 297.58113 186.218506 
L 301.968354 205.478917 
L 306.355577 205.220377 
L 310.742801 208.695612 
L 315.130025 212.396932 
L 319.517248 213.54225 
L 323.904472 212.248569 
L 328.291695 206.666577 
L 332.678919 205.726135 
L 337.066143 205.516829 
L 341.453366 203.300596 
L 345.84059 206.299376 
L 350.227813 208.589488 
L 354.615037 204.497383 
L 359.00226 206.879463 
L 363.389484 213.466903 
L 367.776708 198.868024 
L 372.163931 192.596283 
L 376.551155 206.554874 
L 380.938378 212.233045 
L 385.325602 208.507533 
L 389.712826 194.551753 
L 394.100049 150.813871 
L 398.487273 53.568 
" clip-path="url(#p28fab866d9)" style="fill: none; stroke: #ff0000; stroke-width: 1.5; stroke-linecap: round"/>
   </g>
   <g id="patch_3">
    <path d="M 57.6 307.584 
L 57.6 41.472 
" style="fill: none; stroke: #ffffff; stroke-width: 1.25; stroke-linejoin: miter; stroke-linecap: square"/>
   </g>
   <g id="patch_4">
    <path d="M 414.72 307.584 
L 414.72 41.472 
" style="fill: none; stroke: #ffffff; stroke-width: 1.25; stroke-linejoin: miter; stroke-linecap: square"/>
   </g>
   <g id="patch_5">
    <path d="M 57.6 307.584 
L 414.72 307.584 
" style="fill: none; stroke: #ffffff; stroke-width: 1.25; stroke-linejoin: miter; stroke-linecap: square"/>
   </g>
   <g id="patch_6">
    <path d="M 57.6 41.472 
L 414.72 41.472 
" style="fill: none; stroke: #ffffff; stroke-width: 1.25; stroke-linejoin: miter; stroke-linecap: square"/>
   </g>
  </g>
 </g>
 <defs>
  <clipPath id="p28fab866d9">
   <rect x="57.6" y="41.472" width="357.12" height="266.112"/>
  </clipPath>
 </defs>
</svg>
